<svg width="92" height="92" viewBox="0 0 92 92" fill="none" xmlns="http://www.w3.org/2000/svg">
<g clip-path="url(#clip0_244_75)">
<path d="M46 0C20.595 0 0 20.595 0 46C0 71.405 20.595 92 46 92C71.3932 91.9712 91.9712 71.3932 92 46C92 20.595 71.405 0 46 0ZM46 88.9333C22.2885 88.9333 3.06667 69.7115 3.06667 46C3.06667 22.2885 22.2885 3.06667 46 3.06667C69.7002 3.09369 88.9063 22.2998 88.9333 46C88.9333 69.7115 69.7115 88.9333 46 88.9333Z" fill="#00BDA0"/>
<path d="M66.5543 30.7058C65.9452 30.1174 64.9744 30.1342 64.3862 30.7434L39.4496 55.6815L27.5233 43.7552C26.9291 43.1814 25.9871 43.1814 25.3929 43.7552C24.7838 44.3435 24.7669 45.3143 25.3552 45.9234L38.3655 58.9337C38.653 59.2212 39.0428 59.383 39.4496 59.383C39.8563 59.383 40.2461 59.2212 40.5336 58.9337L66.5543 32.9115C66.5671 32.8992 66.5796 32.8866 66.5919 32.8739C67.1803 32.2648 67.1634 31.294 66.5543 30.7058Z" fill="#00BDA0"/>
</g>
<defs>
<clipPath id="clip0_244_75">
<rect width="92" height="92" fill="white"/>
</clipPath>
</defs>
</svg>
