<svg width="75" height="75" viewBox="0 0 75 75" fill="none" xmlns="http://www.w3.org/2000/svg">
<path d="M23.0991 40.7959C22.8798 40.7959 22.6664 40.7248 22.491 40.5932L9.39638 30.7693C9.2899 30.6894 9.20019 30.5894 9.13238 30.4748C9.06457 30.3603 9.01998 30.2335 9.00116 30.1018C8.96314 29.8357 9.03239 29.5654 9.19367 29.3503C9.35495 29.1353 9.59505 28.9931 9.86115 28.9551C10.1273 28.9171 10.3976 28.9864 10.6126 29.1476L22.8498 38.328L34.6623 20.6118C34.8135 20.3933 35.0445 20.2429 35.3055 20.1931C35.5665 20.1432 35.8366 20.1978 36.0577 20.3452C36.2789 20.4926 36.4333 20.7209 36.4877 20.981C36.5421 21.2411 36.4922 21.5121 36.3487 21.7358L23.9433 40.3439C23.8669 40.4586 23.7679 40.5565 23.6524 40.6316C23.5368 40.7067 23.4072 40.7574 23.2714 40.7807C23.2145 40.7905 23.1568 40.7956 23.0991 40.7959Z" fill="#00BDA0"/>
<path d="M61.1596 56.2257H13.8407C13.6162 56.2257 13.398 56.1512 13.2204 56.0138C13.0429 55.8764 12.9159 55.6839 12.8596 55.4666L6.70959 31.723C6.673 31.5931 6.66272 31.4572 6.67936 31.3233C6.696 31.1893 6.73922 31.0601 6.80648 30.9431C6.87374 30.8261 6.96369 30.7237 7.07106 30.6419C7.17842 30.5601 7.30104 30.5006 7.43171 30.4669C7.56238 30.4331 7.69847 30.4258 7.832 30.4454C7.96554 30.4649 8.09382 30.511 8.20932 30.5808C8.32483 30.6506 8.42523 30.7427 8.50464 30.8519C8.58405 30.961 8.64087 31.0849 8.67175 31.2162L14.6261 54.1977H60.3741L66.3285 31.2162C66.3594 31.0849 66.4162 30.961 66.4956 30.8519C66.575 30.7427 66.6754 30.6506 66.7909 30.5808C66.9064 30.511 67.0347 30.4649 67.1683 30.4454C67.3018 30.4258 67.4379 30.4331 67.5686 30.4669C67.6992 30.5006 67.8218 30.5601 67.9292 30.6419C68.0366 30.7237 68.1265 30.8261 68.1938 30.9431C68.2611 31.0601 68.3043 31.1893 68.3209 31.3233C68.3375 31.4572 68.3273 31.5931 68.2907 31.723L62.1407 55.4666C62.0843 55.6839 61.9574 55.8764 61.7798 56.0138C61.6023 56.1512 61.3841 56.2257 61.1596 56.2257Z" fill="#00BDA0"/>
<path d="M51.901 40.796C51.8436 40.7959 51.7864 40.7912 51.7297 40.7818C51.5939 40.7585 51.4643 40.7077 51.3488 40.6326C51.2332 40.5575 51.1342 40.4596 51.0578 40.345L38.6524 21.7369C38.5747 21.6263 38.5198 21.5013 38.4911 21.3692C38.4624 21.2371 38.4604 21.1007 38.4853 20.9678C38.5101 20.835 38.5613 20.7084 38.6357 20.5956C38.7102 20.4828 38.8065 20.3861 38.9189 20.311C39.0313 20.236 39.1576 20.1842 39.2903 20.1587C39.423 20.1332 39.5595 20.1345 39.6917 20.1625C39.8239 20.1906 39.9492 20.2448 40.0602 20.3219C40.1711 20.3991 40.2656 20.4977 40.3379 20.6119L52.1483 38.3281L64.3855 29.1477C64.492 29.0678 64.6131 29.0097 64.7421 28.9767C64.871 28.9436 65.0052 28.9363 65.1369 28.9552C65.2687 28.974 65.3955 29.0186 65.51 29.0864C65.6245 29.1542 65.7246 29.2439 65.8044 29.3504C65.8843 29.4569 65.9424 29.578 65.9754 29.7069C66.0084 29.8359 66.0158 29.9701 65.9969 30.1018C65.9781 30.2336 65.9335 30.3603 65.8657 30.4749C65.7979 30.5894 65.7082 30.6894 65.6017 30.7693L52.5102 40.5933C52.3344 40.7251 52.1207 40.7962 51.901 40.796Z" fill="#00BDA0"/>
<path d="M61.789 62.397H13.2113C12.8877 62.397 12.5687 62.3202 12.2806 62.1727C11.9925 62.0253 11.7436 61.8116 11.5544 61.5491C11.3651 61.2866 11.2409 60.9829 11.1921 60.663C11.1433 60.3431 11.1711 60.0161 11.2734 59.7091L12.8799 54.8909C12.947 54.6891 13.076 54.5137 13.2484 54.3892C13.4208 54.2648 13.628 54.1978 13.8407 54.1976H61.1596C61.3722 54.1978 61.5794 54.2648 61.7518 54.3892C61.9243 54.5137 62.0532 54.6891 62.1204 54.8909L63.7258 59.7091C63.8283 60.016 63.8564 60.343 63.8077 60.6629C63.759 60.9828 63.6349 61.2865 63.4458 61.5491C63.2566 61.8116 63.0077 62.0254 62.7196 62.1728C62.4316 62.3202 62.1126 62.3971 61.789 62.397ZM14.5714 56.2247L13.1971 60.3497L61.789 60.3699L60.4258 56.2247H14.5714Z" fill="#00BDA0"/>
<path d="M68.1021 32.5662C67.1387 32.5662 66.1969 32.2805 65.3959 31.7453C64.5948 31.21 63.9705 30.4492 63.6019 29.5591C63.2332 28.669 63.1368 27.6895 63.3249 26.7446C63.5129 25.7997 63.9769 24.9318 64.6582 24.2507C65.3395 23.5695 66.2076 23.1056 67.1525 22.9178C68.0974 22.73 69.0768 22.8266 69.9669 23.1954C70.8569 23.5642 71.6176 24.1887 72.1527 24.9899C72.6878 25.791 72.9733 26.7329 72.9731 27.6963C72.9712 28.9875 72.4574 30.2252 71.5443 31.1381C70.6312 32.0511 69.3933 32.5646 68.1021 32.5662ZM68.1021 24.8514C67.5397 24.8514 66.9899 25.0181 66.5223 25.3306C66.0546 25.643 65.6901 26.0871 65.4748 26.6067C65.2595 27.1263 65.2031 27.6981 65.3128 28.2497C65.4225 28.8014 65.6932 29.3081 66.0908 29.7059C66.4885 30.1037 66.9951 30.3746 67.5467 30.4844C68.0983 30.5943 68.6701 30.5381 69.1898 30.323C69.7094 30.1079 70.1537 29.7436 70.4663 29.276C70.7789 28.8085 70.9459 28.2587 70.9461 27.6963C70.9453 26.9423 70.6454 26.2194 70.1122 25.6862C69.579 25.1531 68.8562 24.8532 68.1021 24.8524V24.8514Z" fill="#00BDA0"/>
<path d="M6.89801 32.5662C5.93467 32.566 4.99302 32.2802 4.19213 31.7448C3.39124 31.2095 2.76708 30.4487 2.39857 29.5586C2.03005 28.6686 1.93373 27.6892 2.1218 26.7444C2.30986 25.7996 2.77385 24.9318 3.4551 24.2507C4.13636 23.5695 5.00428 23.1057 5.94912 22.9179C6.89397 22.73 7.8733 22.8265 8.76329 23.1952C9.65328 23.5639 10.414 24.1882 10.9491 24.9892C11.4843 25.7902 11.77 26.732 11.77 27.6953C11.7686 28.9869 11.2549 30.2252 10.3415 31.1384C9.42806 32.0517 8.18963 32.5652 6.89801 32.5662ZM6.89801 24.8514C6.33558 24.8516 5.78584 25.0185 5.31829 25.3311C4.85074 25.6438 4.48639 26.088 4.2713 26.6077C4.0562 27.1273 4.00003 27.6991 4.10987 28.2507C4.21972 28.8023 4.49066 29.309 4.88843 29.7066C5.2862 30.1042 5.79294 30.375 6.34458 30.4846C6.89621 30.5943 7.46798 30.5379 7.98758 30.3226C8.50718 30.1074 8.95128 29.7428 9.26373 29.2752C9.57618 28.8075 9.74294 28.2577 9.74294 27.6953C9.74187 26.9413 9.44173 26.2185 8.90837 25.6855C8.37502 25.1525 7.65202 24.8529 6.89801 24.8524V24.8514Z" fill="#00BDA0"/>
<path d="M37.4999 22.7087C36.5004 22.7089 35.5233 22.4127 34.6922 21.8576C33.861 21.3024 33.2131 20.5133 32.8305 19.5899C32.4479 18.6665 32.3477 17.6504 32.5425 16.6701C32.7374 15.6898 33.2186 14.7893 33.9253 14.0824C34.632 13.3756 35.5324 12.8942 36.5127 12.6992C37.493 12.5041 38.5091 12.6041 39.4325 12.9866C40.356 13.369 41.1453 14.0167 41.7006 14.8478C42.2559 15.6788 42.5523 16.6559 42.5523 17.6554C42.551 18.995 42.0183 20.2794 41.0711 21.2268C40.1239 22.1742 38.8396 22.7071 37.4999 22.7087ZM37.4999 14.629C36.9013 14.6288 36.3161 14.8061 35.8183 15.1386C35.3205 15.471 34.9325 15.9436 34.7032 16.4965C34.474 17.0495 34.414 17.658 34.5306 18.2452C34.6473 18.8323 34.9354 19.3716 35.3586 19.795C35.7818 20.2183 36.3211 20.5066 36.9081 20.6235C37.4952 20.7403 38.1038 20.6805 38.6568 20.4514C39.2099 20.2224 39.6826 19.8345 40.0152 19.3368C40.3478 18.8391 40.5253 18.254 40.5253 17.6554C40.5242 16.8533 40.2051 16.0844 39.638 15.5173C39.0709 14.9502 38.302 14.6311 37.4999 14.63V14.629Z" fill="#00BDA0"/>
</svg>
