<svg width="75" height="75" viewBox="0 0 75 75" fill="none" xmlns="http://www.w3.org/2000/svg">
<g clip-path="url(#clip0_213_0)">
<path d="M68.75 5.00206H66.25V1.25207C66.25 0.561762 65.6903 0.0020752 65 0.0020752C64.3097 0.0020752 63.75 0.561762 63.75 1.25207V5.00206H53.75V1.25207C53.75 0.561762 53.1903 0.0020752 52.5 0.0020752C51.8097 0.0020752 51.25 0.561762 51.25 1.25207V5.00206H41.25V1.25207C41.25 0.561762 40.6903 0.0020752 40 0.0020752C39.3097 0.0020752 38.75 0.561762 38.75 1.25207V5.00206H28.7501V1.25207C28.7501 0.561762 28.1904 0.0020752 27.5001 0.0020752C26.8097 0.0020752 26.2501 0.561762 26.2501 1.25207V5.00206H16.2501V1.25207C16.2501 0.561762 15.6904 0.0020752 15.0001 0.0020752C14.3098 0.0020752 13.7501 0.561762 13.7501 1.25207V5.00206H11.2501C7.8001 5.00613 5.00416 7.80206 5.0001 11.2521V41.8193C-1.78691 49.4885 -1.64895 61.0554 5.31885 68.5605C5.66573 68.9485 6.03385 69.3169 6.42135 69.6643L6.4326 69.6755H6.4401C13.9434 76.6469 25.5115 76.788 33.1825 70.0018H68.75C72.2 69.9977 74.9959 67.2018 74.9999 63.7518V11.2519C74.9957 7.8019 72.2 5.00613 68.75 5.00206ZM31.9468 67.8376C25.2182 74.0627 14.8304 74.0558 8.10994 67.8218C7.7776 67.5233 7.46166 67.2071 7.16369 66.8743C0.586206 59.7648 1.01745 48.669 8.12697 42.0914C15.2365 35.5137 26.3324 35.945 32.91 43.0546C39.4877 50.1642 39.0564 61.2599 31.9468 67.8376ZM72.5 63.7519C72.5 65.823 70.8211 67.5019 68.75 67.5019H35.6C35.7525 67.3132 35.8863 67.1119 36.03 66.9182C36.1738 66.7244 36.2975 66.5657 36.4238 66.3832C36.7025 65.9819 36.9625 65.5682 37.21 65.1469C37.2825 65.0219 37.3638 64.9082 37.4325 64.7844C37.7408 64.2362 38.0221 63.674 38.2763 63.0982C38.3413 62.952 38.3938 62.8007 38.455 62.6532C38.6363 62.2182 38.8063 61.7782 38.955 61.332C39.0263 61.122 39.0875 60.9095 39.15 60.697C39.275 60.2957 39.3788 59.8907 39.4725 59.482C39.5238 59.2582 39.5738 59.0357 39.6188 58.8095C39.7013 58.382 39.7675 57.9495 39.8225 57.5145C39.8475 57.3145 39.88 57.1157 39.9 56.9145C39.9613 56.2807 40 55.6432 40 55.002C39.9869 43.9617 31.0404 35.0151 20.0001 35.002C19.3588 35.002 18.7213 35.0408 18.0876 35.102C17.8863 35.122 17.6876 35.1545 17.4863 35.1795C17.0526 35.2358 16.6213 35.3045 16.1926 35.3833C15.9663 35.4283 15.7426 35.4783 15.5188 35.5295C15.1113 35.6237 14.7084 35.7308 14.3101 35.8508C14.0951 35.9145 13.8801 35.9758 13.6676 36.047C13.2288 36.1945 12.7926 36.362 12.3701 36.5383C12.2126 36.6033 12.0538 36.6632 11.8988 36.727C11.3288 36.977 10.7738 37.2583 10.2263 37.5645C10.0876 37.642 9.95634 37.732 9.81884 37.8145C9.41509 38.0545 9.01759 38.3032 8.63009 38.5645C8.43884 38.697 8.2551 38.8395 8.0676 38.9782C7.8801 39.117 7.68385 39.252 7.5001 39.402V20.002H72.5V63.7519ZM72.5 17.502H7.5001V11.2521C7.5001 9.18096 9.179 7.50206 11.2501 7.50206H13.7501V11.2521C13.7501 11.9424 14.3098 12.5021 15.0001 12.5021C15.6904 12.5021 16.2501 11.9424 16.2501 11.2521V7.50206H26.2501V11.2521C26.2501 11.9424 26.8097 12.5021 27.5001 12.5021C28.1904 12.5021 28.7501 11.9424 28.7501 11.2521V7.50206H38.75V11.2521C38.75 11.9424 39.3097 12.5021 40 12.5021C40.6903 12.5021 41.25 11.9424 41.25 11.2521V7.50206H51.25V11.2521C51.25 11.9424 51.8097 12.5021 52.5 12.5021C53.1903 12.5021 53.75 11.9424 53.75 11.2521V7.50206H63.75V11.2521C63.75 11.9424 64.3097 12.5021 65 12.5021C65.6903 12.5021 66.25 11.9424 66.25 11.2521V7.50206H68.75C70.8211 7.50206 72.5 9.18096 72.5 11.2521V17.502Z" fill="#00BDA0"/>
<path d="M20.0002 41.2513C19.3099 41.2513 18.7502 41.811 18.7502 42.5013V53.7513H12.5002C11.8099 53.7513 11.2502 54.3109 11.2502 55.0013C11.2502 55.6916 11.8099 56.2512 12.5002 56.2512H20.0002C20.6905 56.2512 21.2502 55.6916 21.2502 55.0013V42.5013C21.2502 41.8108 20.6905 41.2513 20.0002 41.2513Z" fill="#00BDA0"/>
</g>
<defs>
<clipPath id="clip0_213_0">
<rect width="75" height="75" fill="white"/>
</clipPath>
</defs>
</svg>
