<svg width="103" height="103" viewBox="0 0 103 103" fill="none" xmlns="http://www.w3.org/2000/svg">
<g clip-path="url(#clip0_228_37)">
<path d="M101.488 100.517H98.0899V50.1929H100.181C100.966 50.1929 101.488 49.6701 101.488 48.8858V40.9124C101.488 40.1282 100.966 39.6053 100.181 39.6053H92.208V35.0305C92.208 34.2462 91.6851 33.7234 90.9008 33.7234H83.9732C83.1889 33.7234 82.6661 34.2462 82.6661 35.0305V39.6053H75.9998V17.3845H77.4376C78.2219 17.3845 78.7448 16.8617 78.7448 16.0774V7.3198C78.7448 6.53553 78.2219 6.01269 77.4376 6.01269H75.9998V1.30711C75.9998 0.522843 75.477 0 74.6927 0H40.9694C40.1851 0 39.6623 0.522843 39.6623 1.30711V6.01269H38.2245C37.4402 6.01269 36.9173 6.53553 36.9173 7.3198V16.0774C36.9173 16.8617 37.4402 17.3845 38.2245 17.3845H39.793V21.3058H20.0557V16.8617C20.0557 16.0774 19.5328 15.5546 18.7486 15.5546H11.8209C11.0366 15.5546 10.5138 16.0774 10.5138 16.8617V21.3058H4.76252C3.97826 21.3058 3.45542 21.8287 3.45542 22.6129V31.3706C3.45542 32.1548 3.97826 32.6777 4.76252 32.6777H6.20034V100.386H1.62547C0.841202 100.386 0.318359 100.909 0.318359 101.693C0.318359 102.477 0.841202 103 1.62547 103H101.358C102.142 103 102.665 102.477 102.665 101.693C102.796 101.039 102.142 100.517 101.488 100.517ZM85.1496 36.3376H89.463V39.6053H85.1496V36.3376ZM98.7435 42.2195V47.5787H75.9998V42.2195H98.7435ZM42.2765 2.4835H73.3856V5.88198H42.2765V2.4835ZM39.5316 14.7703V8.6269H75.9998V14.7703H39.5316ZM13.128 18.1688H17.4415V21.3058H13.128V18.1688ZM6.20034 23.9201H42.6686V30.0635H6.20034V23.9201ZM39.9237 100.517H8.81455V32.6777H39.9237V100.517ZM73.3856 100.517H42.5379V32.6777H43.9757C44.76 32.6777 45.2828 32.1548 45.2828 31.3706V22.6129C45.2828 21.8287 44.76 21.3058 43.9757 21.3058H42.5379V17.3845H73.3856V100.517ZM95.4757 100.517H95.345H75.9998V50.1929H95.4757V100.517Z" fill="white"/>
<path d="M48.9426 39.6055C48.1583 39.6055 47.6355 40.1283 47.6355 40.9126V46.7946C47.6355 47.4481 48.289 48.1017 48.9426 48.1017C49.7269 48.1017 50.2497 47.5788 50.2497 46.7946V40.9126C50.2497 40.1283 49.7269 39.6055 48.9426 39.6055Z" fill="white"/>
<path d="M58.0925 39.6055C57.3082 39.6055 56.7854 40.1283 56.7854 40.9126V46.7946C56.7854 47.4481 57.3082 48.1017 58.0925 48.1017C58.8768 48.1017 59.3996 47.5788 59.3996 46.7946V40.9126C59.3996 40.1283 58.8768 39.6055 58.0925 39.6055Z" fill="white"/>
<path d="M67.1115 39.6055C66.3273 39.6055 65.8044 40.1283 65.8044 40.9126V46.7946C65.8044 47.4481 66.3273 48.1017 67.1115 48.1017C67.8958 48.1017 68.4187 47.5788 68.4187 46.7946V40.9126C68.4187 40.1283 67.8958 39.6055 67.1115 39.6055Z" fill="white"/>
<path d="M48.9426 55.0293C48.1583 55.0293 47.6355 55.5521 47.6355 56.3364V62.2184C47.6355 62.8719 48.289 63.5255 48.9426 63.5255C49.7269 63.5255 50.2497 63.0026 50.2497 62.2184V56.3364C50.2497 55.5521 49.7269 55.0293 48.9426 55.0293Z" fill="white"/>
<path d="M58.0925 55.0293C57.3082 55.0293 56.7854 55.5521 56.7854 56.3364V62.2184C56.7854 62.8719 57.3082 63.5255 58.0925 63.5255C58.8768 63.5255 59.3996 63.0026 59.3996 62.2184V56.3364C59.3996 55.5521 58.8768 55.0293 58.0925 55.0293Z" fill="white"/>
<path d="M67.1115 55.0293C66.3273 55.0293 65.8044 55.5521 65.8044 56.3364V62.2184C65.8044 62.8719 66.3273 63.5255 67.1115 63.5255C67.8958 63.5255 68.4187 63.0026 68.4187 62.2184V56.3364C68.4187 55.5521 67.8958 55.0293 67.1115 55.0293Z" fill="white"/>
<path d="M48.9426 24.1816C48.1583 24.1816 47.6355 24.7045 47.6355 25.4887V31.3707C47.6355 32.155 48.289 32.6778 48.9426 32.6778C49.7269 32.6778 50.2497 32.155 50.2497 31.3707V25.4887C50.2497 24.7045 49.7269 24.1816 48.9426 24.1816Z" fill="white"/>
<path d="M58.0925 24.1816C57.3082 24.1816 56.7854 24.7045 56.7854 25.4887V31.3707C56.7854 32.155 57.3082 32.6778 58.0925 32.6778C58.8768 32.6778 59.3996 32.155 59.3996 31.3707V25.4887C59.3996 24.7045 58.8768 24.1816 58.0925 24.1816Z" fill="white"/>
<path d="M67.1115 24.1816C66.3273 24.1816 65.8044 24.7045 65.8044 25.4887V31.3707C65.8044 32.155 66.3273 32.6778 67.1115 32.6778C67.8958 32.6778 68.4187 32.155 68.4187 31.3707V25.4887C68.4187 24.7045 67.8958 24.1816 67.1115 24.1816Z" fill="white"/>
<path d="M48.9426 70.4531C48.1583 70.4531 47.6355 70.976 47.6355 71.7602V77.6422C47.6355 78.2958 48.289 78.9493 48.9426 78.9493C49.7269 78.9493 50.2497 78.4265 50.2497 77.6422V71.7602C50.2497 70.976 49.7269 70.4531 48.9426 70.4531Z" fill="white"/>
<path d="M58.0925 70.4531C57.3082 70.4531 56.7854 70.976 56.7854 71.7602V77.6422C56.7854 78.2958 57.3082 78.9493 58.0925 78.9493C58.8768 78.9493 59.3996 78.4265 59.3996 77.6422V71.7602C59.3996 70.976 58.8768 70.4531 58.0925 70.4531Z" fill="white"/>
<path d="M67.1115 70.4531C66.3273 70.4531 65.8044 70.976 65.8044 71.7602V77.6422C65.8044 78.2958 66.3273 78.9493 67.1115 78.9493C67.8958 78.9493 68.4187 78.4265 68.4187 77.6422V71.7602C68.4187 70.976 67.8958 70.4531 67.1115 70.4531Z" fill="white"/>
<path d="M48.9426 85.877C48.1583 85.877 47.6355 86.3998 47.6355 87.1841V93.066C47.6355 93.7196 48.289 94.3731 48.9426 94.3731C49.7269 94.3731 50.2497 93.8503 50.2497 93.066V87.1841C50.2497 86.3998 49.7269 85.877 48.9426 85.877Z" fill="white"/>
<path d="M58.0925 85.877C57.3082 85.877 56.7854 86.3998 56.7854 87.1841V93.066C56.7854 93.7196 57.3082 94.3731 58.0925 94.3731C58.8768 94.3731 59.3996 93.8503 59.3996 93.066V87.1841C59.3996 86.3998 58.8768 85.877 58.0925 85.877Z" fill="white"/>
<path d="M67.1115 85.877C66.3273 85.877 65.8044 86.3998 65.8044 87.1841V93.066C65.8044 93.7196 66.3273 94.3731 67.1115 94.3731C67.8958 94.3731 68.4187 93.8503 68.4187 93.066V87.1841C68.4187 86.3998 67.8958 85.877 67.1115 85.877Z" fill="white"/>
<path d="M81.0976 55.0293C80.3134 55.0293 79.7905 55.5521 79.7905 56.3364V62.2184C79.7905 62.8719 80.4441 63.5255 81.0976 63.5255C81.8819 63.5255 82.4047 63.0026 82.4047 62.2184V56.3364C82.4047 55.5521 81.8819 55.0293 81.0976 55.0293Z" fill="white"/>
<path d="M90.2473 55.0293C89.463 55.0293 88.9402 55.5521 88.9402 56.3364V62.2184C88.9402 62.8719 89.463 63.5255 90.2473 63.5255C91.0316 63.5255 91.5544 63.0026 91.5544 62.2184V56.3364C91.5544 55.5521 91.0316 55.0293 90.2473 55.0293Z" fill="white"/>
<path d="M81.0976 70.4531C80.3134 70.4531 79.7905 70.976 79.7905 71.7602V77.6422C79.7905 78.2958 80.4441 78.9493 81.0976 78.9493C81.8819 78.9493 82.4047 78.4265 82.4047 77.6422V71.7602C82.4047 70.976 81.8819 70.4531 81.0976 70.4531Z" fill="white"/>
<path d="M90.2473 70.4531C89.463 70.4531 88.9402 70.976 88.9402 71.7602V77.6422C88.9402 78.2958 89.463 78.9493 90.2473 78.9493C91.0316 78.9493 91.5544 78.4265 91.5544 77.6422V71.7602C91.5544 70.976 91.0316 70.4531 90.2473 70.4531Z" fill="white"/>
<path d="M81.0976 85.877C80.3134 85.877 79.7905 86.3998 79.7905 87.1841V93.066C79.7905 93.7196 80.4441 94.3731 81.0976 94.3731C81.8819 94.3731 82.4047 93.8503 82.4047 93.066V87.1841C82.4047 86.3998 81.8819 85.877 81.0976 85.877Z" fill="white"/>
<path d="M90.2473 85.877C89.463 85.877 88.9402 86.3998 88.9402 87.1841V93.066C88.9402 93.7196 89.463 94.3731 90.2473 94.3731C91.0316 94.3731 91.5544 93.8503 91.5544 93.066V87.1841C91.5544 86.3998 91.0316 85.877 90.2473 85.877Z" fill="white"/>
<path d="M15.3501 39.6055C14.5658 39.6055 14.043 40.1283 14.043 40.9126V46.7946C14.043 47.4481 14.5658 48.1017 15.3501 48.1017C16.1343 48.1017 16.6572 47.5788 16.6572 46.7946V40.9126C16.6572 40.1283 16.1343 39.6055 15.3501 39.6055Z" fill="white"/>
<path d="M24.3691 39.6055C23.5849 39.6055 23.062 40.1283 23.062 40.9126V46.7946C23.062 47.4481 23.7156 48.1017 24.3691 48.1017C25.1534 48.1017 25.6762 47.5788 25.6762 46.7946V40.9126C25.6762 40.1283 25.1534 39.6055 24.3691 39.6055Z" fill="white"/>
<path d="M33.3882 39.6055C32.6039 39.6055 32.0811 40.1283 32.0811 40.9126V46.7946C32.0811 47.4481 32.7346 48.1017 33.3882 48.1017C34.1724 48.1017 34.6953 47.5788 34.6953 46.7946V40.9126C34.6953 40.1283 34.1724 39.6055 33.3882 39.6055Z" fill="white"/>
<path d="M15.3501 55.0293C14.5658 55.0293 14.043 55.5521 14.043 56.3364V62.2184C14.043 62.8719 14.5658 63.5255 15.3501 63.5255C16.1343 63.5255 16.6572 63.0026 16.6572 62.2184V56.3364C16.6572 55.5521 16.1343 55.0293 15.3501 55.0293Z" fill="white"/>
<path d="M24.3691 55.0293C23.5849 55.0293 23.062 55.5521 23.062 56.3364V62.2184C23.062 62.8719 23.7156 63.5255 24.3691 63.5255C25.1534 63.5255 25.6762 63.0026 25.6762 62.2184V56.3364C25.6762 55.5521 25.1534 55.0293 24.3691 55.0293Z" fill="white"/>
<path d="M33.3882 55.0293C32.6039 55.0293 32.0811 55.5521 32.0811 56.3364V62.2184C32.0811 62.8719 32.7346 63.5255 33.3882 63.5255C34.1724 63.5255 34.6953 63.0026 34.6953 62.2184V56.3364C34.6953 55.5521 34.1724 55.0293 33.3882 55.0293Z" fill="white"/>
<path d="M15.3501 70.4531C14.5658 70.4531 14.043 70.976 14.043 71.7602V77.6422C14.043 78.2958 14.5658 78.9493 15.3501 78.9493C16.1343 78.9493 16.6572 78.4265 16.6572 77.6422V71.7602C16.6572 70.976 16.1343 70.4531 15.3501 70.4531Z" fill="white"/>
<path d="M24.3691 70.4531C23.5849 70.4531 23.062 70.976 23.062 71.7602V77.6422C23.062 78.2958 23.7156 78.9493 24.3691 78.9493C25.1534 78.9493 25.6762 78.4265 25.6762 77.6422V71.7602C25.6762 70.976 25.1534 70.4531 24.3691 70.4531Z" fill="white"/>
<path d="M33.3882 70.4531C32.6039 70.4531 32.0811 70.976 32.0811 71.7602V77.6422C32.0811 78.2958 32.7346 78.9493 33.3882 78.9493C34.1724 78.9493 34.6953 78.4265 34.6953 77.6422V71.7602C34.6953 70.976 34.1724 70.4531 33.3882 70.4531Z" fill="white"/>
<path d="M15.3501 85.877C14.5658 85.877 14.043 86.3998 14.043 87.1841V93.066C14.043 93.7196 14.5658 94.3731 15.3501 94.3731C16.1343 94.3731 16.6572 93.8503 16.6572 93.066V87.1841C16.6572 86.3998 16.1343 85.877 15.3501 85.877Z" fill="white"/>
<path d="M24.3691 85.877C23.5849 85.877 23.062 86.3998 23.062 87.1841V93.066C23.062 93.7196 23.7156 94.3731 24.3691 94.3731C25.1534 94.3731 25.6762 93.8503 25.6762 93.066V87.1841C25.6762 86.3998 25.1534 85.877 24.3691 85.877Z" fill="white"/>
<path d="M33.3882 85.877C32.6039 85.877 32.0811 86.3998 32.0811 87.1841V93.066C32.0811 93.7196 32.7346 94.3731 33.3882 94.3731C34.1724 94.3731 34.6953 93.8503 34.6953 93.066V87.1841C34.6953 86.3998 34.1724 85.877 33.3882 85.877Z" fill="white"/>
</g>
<defs>
<clipPath id="clip0_228_37">
<rect width="103" height="103" fill="white"/>
</clipPath>
</defs>
</svg>
