<svg width="103" height="84" viewBox="0 0 103 84" fill="none" xmlns="http://www.w3.org/2000/svg">
<g clip-path="url(#clip0_220_23)">
<path d="M32.1673 56.7725C32.0097 56.7725 31.8538 56.8035 31.7082 56.8637C31.5627 56.9239 31.4305 57.0122 31.3191 57.1234C31.2077 57.2347 31.1194 57.3668 31.0591 57.5122C30.9988 57.6575 30.9678 57.8134 30.9678 57.9707C30.9678 58.1281 30.9988 58.2839 31.0591 58.4293C31.1194 58.5747 31.2077 58.7068 31.3191 58.818C31.4305 58.9293 31.5627 59.0176 31.7082 59.0778C31.8538 59.138 32.0097 59.169 32.1673 59.169H34.743C35.0611 59.169 35.3662 59.0427 35.5912 58.818C35.8161 58.5933 35.9425 58.2885 35.9425 57.9707C35.9425 57.6529 35.8161 57.3481 35.5912 57.1234C35.3662 56.8987 35.0611 56.7725 34.743 56.7725H32.1673Z" fill="white"/>
<path d="M29.0106 59.8498C29.1531 59.7632 29.276 59.648 29.3714 59.5113C29.4668 59.3747 29.5326 59.2196 29.5647 59.0561C29.5967 58.8926 29.5943 58.7243 29.5575 58.5618C29.5207 58.3993 29.4505 58.2462 29.3512 58.1124C29.2519 57.9785 29.1257 57.8668 28.9807 57.7844C28.8358 57.702 28.6752 57.6507 28.5093 57.6338C28.3434 57.6169 28.1758 57.6347 28.0172 57.6862C27.8586 57.7376 27.7124 57.8215 27.5881 57.9326C27.5081 57.9914 19.2254 64.008 8.79194 61.8301C8.72806 61.8167 8.6707 61.7818 8.62936 61.7313C8.58802 61.6809 8.5652 61.6178 8.56467 61.5526C8.56467 61.2709 8.56467 60.9808 8.56467 60.7117C8.52259 58.9332 8.4805 57.2515 9.24649 56.4694C9.66736 56.049 10.4291 55.8178 11.5066 55.8178C11.6698 55.8274 11.8333 55.8037 11.9869 55.7479C12.1406 55.6922 12.2813 55.6056 12.4003 55.4936C12.5192 55.3816 12.6141 55.2465 12.6789 55.0965C12.7436 54.9465 12.7771 54.7849 12.7771 54.6216C12.7771 54.4583 12.7436 54.2967 12.6789 54.1467C12.6141 53.9967 12.5192 53.8616 12.4003 53.7496C12.2813 53.6376 12.1406 53.551 11.9869 53.4953C11.8333 53.4395 11.6698 53.4158 11.5066 53.4254C9.7347 53.4254 8.4342 53.8753 7.53354 54.8003C6.06469 56.3013 6.11941 58.5843 6.16991 60.7664C6.16991 61.0438 6.16991 61.3213 6.16991 61.6072C6.17488 62.2178 6.38951 62.8081 6.77791 63.2795C7.1663 63.7509 7.70493 64.0749 8.30373 64.1972C10.0035 64.5524 11.7355 64.7313 13.472 64.7311C19.0202 64.6707 24.4264 62.9723 29.0106 59.8498Z" fill="white"/>
<path d="M3.40908 27.3371C3.5723 27.3468 3.73576 27.3231 3.88945 27.2673C4.04313 27.2116 4.18379 27.125 4.30277 27.013C4.42176 26.901 4.51656 26.7658 4.58136 26.6159C4.64616 26.4659 4.67959 26.3043 4.67959 26.141C4.67959 25.9777 4.64616 25.8161 4.58136 25.6661C4.51656 25.5161 4.42176 25.381 4.30277 25.269C4.18379 25.1569 4.04313 25.0704 3.88945 25.0147C3.73576 24.9589 3.5723 24.9352 3.40908 24.9448C3.22657 24.9442 3.04851 24.8885 2.89829 24.7849C2.74807 24.6814 2.6327 24.5349 2.56734 24.3646V24.3352C2.42503 23.9713 2.37931 23.5768 2.43462 23.1901C2.48992 22.8033 2.64438 22.4374 2.88299 22.1279L3.52693 21.287C3.61166 21.1768 3.72066 21.0877 3.84547 21.0264C3.97029 20.9652 4.10756 20.9335 4.24662 20.9338H8.37958C8.43519 21.2266 8.59799 21.4881 8.8362 21.6674C9.07441 21.8467 9.37095 21.9309 9.66796 21.9036C9.96497 21.8763 10.2411 21.7394 10.4426 21.5197C10.644 21.3 10.7563 21.0132 10.7575 20.7152C10.7564 20.139 10.5268 19.5868 10.119 19.1794C9.71115 18.772 9.15834 18.5426 8.5816 18.5415H4.22978C3.72637 18.5403 3.22924 18.6532 2.77581 18.8717C2.32237 19.0902 1.92444 19.4085 1.61196 19.8028L0.972234 20.6437C0.48133 21.2812 0.163369 22.0345 0.0490911 22.8307C-0.065187 23.6269 0.0280819 24.439 0.319881 25.1887V25.2181C0.556381 25.8443 0.979249 26.3831 1.53156 26.762C2.08387 27.1408 2.73912 27.3416 3.40908 27.3371Z" fill="white"/>
<path d="M101.413 62.0782V43.5788C101.413 36.4313 96.9689 30.2171 95.3485 28.7624C93.7282 27.3077 91.9816 23.818 91.3545 22.5903C85.2476 6.59673 81.1651 3.22479 78.2948 2.07698C78.2299 2.04889 78.1622 2.02775 78.0928 2.01391C69.3597 0.332149 52.2639 0.0126132 51.54 0H51.4979C50.774 0 33.6782 0.327945 24.9451 2.01391C24.8699 2.02656 24.7965 2.04772 24.7262 2.07698C21.8559 3.22479 17.7734 6.59673 11.6792 22.5987C11.0647 23.8264 9.30545 27.3161 7.68509 28.7708C6.06474 30.2255 1.62033 36.4439 1.62033 43.5872V62.0866C0.778585 63.638 0.273538 66.7114 2.80298 70.075V79.7956C2.80298 80.9107 3.2464 81.9801 4.03568 82.7686C4.82497 83.557 5.89548 84 7.0117 84H14.4359C15.5521 84 16.6226 83.557 17.4119 82.7686C18.2012 81.9801 18.6446 80.9107 18.6446 79.7956V77.3024C18.6543 77.1393 18.6305 76.976 18.5747 76.8225C18.5189 76.669 18.4323 76.5285 18.3201 76.4096C18.208 76.2907 18.0727 76.196 17.9226 76.1313C17.7725 76.0666 17.6107 76.0332 17.4472 76.0332C17.2837 76.0332 17.1219 76.0666 16.9718 76.1313C16.8217 76.196 16.6864 76.2907 16.5743 76.4096C16.4622 76.5285 16.3755 76.669 16.3197 76.8225C16.2639 76.976 16.2402 77.1393 16.2498 77.3024V79.7956C16.2487 80.2758 16.0573 80.7361 15.7173 81.0757C15.3774 81.4153 14.9166 81.6066 14.4359 81.6077H6.9654C6.48465 81.6066 6.02391 81.4153 5.68397 81.0757C5.34402 80.7361 5.15256 80.2758 5.15144 79.7956V72.2276C6.5782 72.8078 10.446 73.6571 22.5292 74.271C30.6689 74.6914 41.2244 74.9227 51.4852 74.9227C61.7461 74.9227 72.3016 74.6872 80.4412 74.271C92.5245 73.6571 96.3923 72.8078 97.819 72.2276V79.7956C97.8179 80.2758 97.6265 80.7361 97.2865 81.0757C96.9466 81.4153 96.4858 81.6066 96.0051 81.6077H88.6146C88.1338 81.6066 87.6731 81.4153 87.3331 81.0757C86.9932 80.7361 86.8017 80.2758 86.8006 79.7956V77.3024C86.8103 77.1393 86.7865 76.976 86.7307 76.8225C86.6749 76.669 86.5883 76.5285 86.4762 76.4096C86.364 76.2907 86.2287 76.196 86.0786 76.1313C85.9285 76.0666 85.7667 76.0332 85.6032 76.0332C85.4397 76.0332 85.278 76.0666 85.1279 76.1313C84.9777 76.196 84.8425 76.2907 84.7303 76.4096C84.6182 76.5285 84.5316 76.669 84.4758 76.8225C84.42 76.976 84.3962 77.1393 84.4059 77.3024V79.7956C84.4059 80.9107 84.8493 81.9801 85.6386 82.7686C86.4278 83.557 87.4984 84 88.6146 84H96.0219C97.1381 84 98.2086 83.557 98.9979 82.7686C99.7872 81.9801 100.231 80.9107 100.231 79.7956V70.054C102.76 66.7241 102.259 63.6296 101.413 62.0782ZM97.1499 69.9026C96.7669 70.1549 94.3847 71.1639 80.336 71.8871C72.2342 72.3075 61.7251 72.5346 51.5021 72.5346C41.2791 72.5346 30.7699 72.2991 22.6681 71.8871C8.61943 71.1723 6.25413 70.1549 5.8543 69.9026C1.88127 66.1396 3.70785 63.1755 3.7794 63.083C3.91477 62.8846 3.98801 62.6504 3.98984 62.4103V43.5872C3.98984 37.2805 8.09755 31.5962 9.25915 30.5535C11.0352 28.96 12.7103 25.8319 13.8172 23.6204C13.8382 23.5826 13.8509 23.5489 13.8677 23.5111C20.2271 6.82377 24.1075 4.90235 25.4838 4.33896C33.9012 2.74128 50.7992 2.40913 51.4937 2.39652C52.1881 2.3839 69.0693 2.74128 77.5036 4.33896C78.8882 4.90235 82.7687 6.82376 89.128 23.5069C89.128 23.5447 89.1575 23.5784 89.1785 23.6162C90.2854 25.8277 91.9605 28.9558 93.7366 30.5493C94.8982 31.5962 99.0101 37.2763 99.0101 43.583V62.4061C99.0068 62.6412 99.0759 62.8716 99.2079 63.0662C99.2963 63.1923 101.123 66.1396 97.1499 69.9026Z" fill="white"/>
<path d="M87.3982 67.2456C86.5565 67.3171 85.6642 67.3801 84.7509 67.4432C84.4339 67.4538 84.1341 67.5898 83.9174 67.8212C83.7008 68.0526 83.585 68.3605 83.5956 68.6772C83.6062 68.9939 83.7423 69.2934 83.974 69.5098C84.2057 69.7263 84.5139 69.8419 84.8309 69.8313H84.9109C85.8368 69.7724 86.7332 69.7052 87.5876 69.6379C87.8982 69.6046 88.1835 69.4516 88.3829 69.2115C88.5823 68.9713 88.6801 68.6629 88.6554 68.3519C88.6307 68.0408 88.4856 67.7516 88.2508 67.5458C88.016 67.34 87.7101 67.2338 87.3982 67.2498V67.2456Z" fill="white"/>
<path d="M78.4252 67.792C74.0524 67.9896 69.166 68.141 63.8462 68.2335C63.5281 68.2335 63.223 68.3597 62.9981 68.5844C62.7731 68.8091 62.6467 69.1139 62.6467 69.4317C62.6467 69.7495 62.7731 70.0543 62.9981 70.279C63.223 70.5037 63.5281 70.63 63.8462 70.63H63.8715C69.1913 70.5375 74.1197 70.3861 78.5136 70.1843C78.8306 70.1698 79.1289 70.0301 79.3428 69.7959C79.5567 69.5617 79.6687 69.2523 79.6542 68.9356C79.6397 68.6189 79.4998 68.321 79.2654 68.1073C79.031 67.8936 78.7212 67.7817 78.4042 67.7962L78.4252 67.792Z" fill="white"/>
<path d="M57.7101 68.3175C55.6057 68.3385 53.5308 68.3469 51.5106 68.3469C38.2616 68.3469 19.5538 67.9265 10.4251 66.7156C10.1118 66.678 9.79629 66.7652 9.54693 66.9584C9.29758 67.1516 9.13448 67.4351 9.09295 67.7476C9.05143 68.0601 9.13484 68.3763 9.32511 68.6278C9.51537 68.8793 9.79717 69.0457 10.1094 69.0911C19.3686 70.3104 38.19 70.7392 51.5106 70.7392C53.5392 70.7392 55.6309 70.7392 57.7311 70.7098C58.0364 70.6917 58.3232 70.5578 58.533 70.3355C58.7427 70.1131 58.8596 69.8192 58.8596 69.5136C58.8596 69.2081 58.7427 68.9141 58.533 68.6918C58.3232 68.4695 58.0364 68.3356 57.7311 68.3175H57.7101Z" fill="white"/>
<path d="M16.1658 25.5587C17.1001 26.0043 18.6111 26.3491 20.7954 26.6056C20.9515 26.6241 21.1098 26.6117 21.2611 26.569C21.4125 26.5264 21.5539 26.4545 21.6774 26.3573C21.8009 26.2601 21.904 26.1395 21.9809 26.0025C22.0577 25.8655 22.1068 25.7146 22.1254 25.5587C22.1439 25.4027 22.1314 25.2446 22.0888 25.0934C22.0462 24.9422 21.9741 24.8009 21.8768 24.6775C21.7795 24.5542 21.6588 24.4512 21.5216 24.3744C21.3845 24.2976 21.2335 24.2486 21.0774 24.2301C20.0118 24.1247 18.9563 23.9349 17.9208 23.6625C18.5521 21.3753 22.0748 14.274 24.9031 10.0191C25.23 9.52527 25.6542 9.10314 26.1499 8.77857C26.6456 8.45399 27.2023 8.23377 27.7861 8.13137C37.2515 6.73971 51.3549 6.8322 51.5148 6.8322C51.6748 6.8322 65.7572 6.73971 75.1973 8.12716C75.7821 8.22716 76.3403 8.44497 76.8381 8.76734C77.3359 9.08972 77.7628 9.5099 78.0929 10.0023C80.9212 14.2572 84.4439 21.3542 85.0752 23.6457C84.0397 23.9181 82.9842 24.1079 81.9186 24.2133C81.6049 24.2353 81.3124 24.3799 81.1047 24.6159C80.897 24.8518 80.7908 25.1601 80.8091 25.4738C80.8273 25.7874 80.9687 26.0813 81.2024 26.2916C81.4361 26.5019 81.7433 26.6117 82.0575 26.5972C82.1051 26.6013 82.153 26.6013 82.2006 26.5972C84.3807 26.3407 85.8917 25.9959 86.8302 25.5503C87.0131 25.4636 87.171 25.3319 87.289 25.1677C87.6846 24.6127 88.177 23.9063 85.2267 17.8436C83.7019 14.6911 81.9887 11.6332 80.0963 8.68635C79.5809 7.91349 78.9131 7.25384 78.1337 6.74778C77.3543 6.24172 76.4797 5.8999 75.5635 5.74326C65.9129 4.32217 51.6285 4.41887 51.5022 4.41887C51.376 4.41887 37.0747 4.32216 27.3947 5.74746C26.4834 5.90715 25.6142 6.25042 24.84 6.75639C24.0658 7.26236 23.4028 7.92043 22.8913 8.69055C20.9989 11.6374 19.2857 14.6954 17.7609 17.8478C14.8148 23.9274 15.303 24.6169 15.6986 25.1719C15.8185 25.3388 15.9794 25.472 16.1658 25.5587Z" fill="white"/>
<path d="M72.7352 24.7722C66.8093 24.9446 59.3725 24.9446 51.5022 24.9446C42.2935 24.9446 33.5941 24.9446 27.2431 24.6629C27.0821 24.6494 26.9201 24.6685 26.7667 24.7191C26.6133 24.7697 26.4718 24.8508 26.3505 24.9574C26.2292 25.064 26.1307 25.1939 26.061 25.3395C25.9912 25.485 25.9516 25.6431 25.9445 25.8044C25.9374 25.9656 25.963 26.1266 26.0197 26.2777C26.0764 26.4287 26.1631 26.5668 26.2746 26.6837C26.386 26.8005 26.5199 26.8936 26.6683 26.9574C26.8166 27.0213 26.9764 27.0545 27.1379 27.0552C33.5436 27.3369 42.2683 27.3369 51.5022 27.3369C59.3893 27.3369 66.843 27.3369 72.8067 27.1645C73.9178 27.1309 74.9111 27.0972 75.8665 27.0552C76.1752 27.0293 76.462 26.8851 76.6667 26.6527C76.8714 26.4203 76.9781 26.1178 76.9645 25.8085C76.9509 25.4993 76.818 25.2073 76.5937 24.9937C76.3694 24.7802 76.0711 24.6616 75.7612 24.6629C74.8269 24.7175 73.8379 24.7386 72.7352 24.7722Z" fill="white"/>
<path d="M12.1674 32.9292C14.5201 34.611 23.7877 36.5534 26.5697 37.1084C28.3457 37.4616 29.4905 39.055 29.4947 39.0634C29.6051 39.2224 29.7523 39.3525 29.9237 39.4425C30.0952 39.5325 30.2859 39.5799 30.4796 39.5806H72.5247C72.7172 39.5794 72.9067 39.5322 73.0773 39.4429C73.2478 39.3537 73.3946 39.225 73.5053 39.0676C73.5053 39.0676 74.6585 37.4616 76.4514 37.1084C77.2174 36.957 81.2157 36.1456 84.7973 35.1786C85.0933 35.0865 85.3421 34.8835 85.4915 34.6121C85.641 34.3408 85.6794 34.0222 85.5989 33.7231C85.5183 33.4241 85.325 33.1678 85.0594 33.008C84.7939 32.8483 84.4767 32.7974 84.1744 32.8661C80.6643 33.8163 76.7334 34.611 75.98 34.7623C74.419 35.1247 73.0141 35.9744 71.9691 37.1883H31.0519C30.0069 35.9744 28.6021 35.1247 27.041 34.7623C21.5697 33.6692 15.0167 32.021 13.5731 30.9783C13.4459 30.8765 13.2992 30.8017 13.142 30.7584C12.9848 30.7151 12.8205 30.7043 12.659 30.7266C12.4975 30.7489 12.3422 30.8039 12.2027 30.8882C12.0632 30.9724 11.9423 31.0842 11.8475 31.2167C11.7527 31.3492 11.6859 31.4996 11.6512 31.6588C11.6165 31.8179 11.6147 31.9825 11.6458 32.1423C11.677 32.3022 11.7404 32.4541 11.8322 32.5886C11.9241 32.7232 12.0424 32.8376 12.18 32.925L12.1674 32.9292Z" fill="white"/>
<path d="M87.5373 33.1266C87.627 33.3487 87.7811 33.539 87.9798 33.6731C88.1785 33.8072 88.4128 33.879 88.6526 33.8792C88.8038 33.8778 88.9535 33.8493 89.0945 33.7951C89.708 33.57 90.2928 33.2737 90.8369 32.9121C90.9897 32.8332 91.1238 32.7224 91.2299 32.5872C91.3361 32.452 91.4119 32.2956 91.4522 32.1286C91.4926 31.9615 91.4964 31.7878 91.4636 31.6191C91.4308 31.4505 91.3621 31.2908 91.2621 31.151C91.1621 31.0112 91.0332 30.8945 90.884 30.8089C90.7349 30.7232 90.5691 30.6706 90.3979 30.6546C90.2266 30.6386 90.0539 30.6596 89.8915 30.7161C89.7291 30.7727 89.5807 30.8635 89.4565 30.9823C89.0692 31.2292 88.6556 31.4322 88.2233 31.5877C87.9293 31.7025 87.6924 31.9283 87.564 32.2164C87.4355 32.5045 87.426 32.8315 87.5373 33.1266Z" fill="white"/>
<path d="M68.2698 56.7725C67.9517 56.7725 67.6466 56.8987 67.4216 57.1234C67.1967 57.3481 67.0703 57.6529 67.0703 57.9707C67.0703 58.2885 67.1967 58.5933 67.4216 58.818C67.6466 59.0427 67.9517 59.169 68.2698 59.169H70.8371C70.9946 59.169 71.1506 59.138 71.2961 59.0778C71.4417 59.0176 71.5739 58.9293 71.6853 58.818C71.7967 58.7068 71.885 58.5747 71.9453 58.4293C72.0056 58.2839 72.0366 58.1281 72.0366 57.9707C72.0366 57.8134 72.0056 57.6575 71.9453 57.5122C71.885 57.3668 71.7967 57.2347 71.6853 57.1234C71.5739 57.0122 71.4417 56.9239 71.2961 56.8637C71.1506 56.8035 70.9946 56.7725 70.8371 56.7725H68.2698Z" fill="white"/>
<path d="M40.1218 56.7725C39.8037 56.7725 39.4986 56.8987 39.2737 57.1234C39.0487 57.3481 38.9224 57.6529 38.9224 57.9707C38.9224 58.2885 39.0487 58.5933 39.2737 58.818C39.4986 59.0427 39.8037 59.169 40.1218 59.169H62.8826C63.2007 59.169 63.5058 59.0427 63.7308 58.818C63.9557 58.5933 64.0821 58.2885 64.0821 57.9707C64.0821 57.6529 63.9557 57.3481 63.7308 57.1234C63.5058 56.8987 63.2007 56.7725 62.8826 56.7725H40.1218Z" fill="white"/>
<path d="M91.5187 53.4088C91.3555 53.3992 91.192 53.4229 91.0384 53.4787C90.8847 53.5344 90.744 53.621 90.625 53.733C90.506 53.845 90.4112 53.9801 90.3464 54.1301C90.2816 54.2801 90.2482 54.4417 90.2482 54.605C90.2482 54.7683 90.2816 54.9299 90.3464 55.0799C90.4112 55.2299 90.506 55.365 90.625 55.477C90.744 55.589 90.8847 55.6756 91.0384 55.7313C91.192 55.7871 91.3555 55.8108 91.5187 55.8012C92.5962 55.8012 93.3579 56.0198 93.7788 56.4528C94.5448 57.2349 94.5027 58.9166 94.4606 60.6951C94.4606 60.9768 94.4606 61.2669 94.4606 61.536C94.4601 61.6012 94.4373 61.6643 94.3959 61.7147C94.3546 61.7652 94.2972 61.8 94.2334 61.8135C92.2245 62.2275 90.169 62.369 88.1223 62.2339C87.816 62.2325 87.5207 62.3482 87.2971 62.5573C87.0734 62.7664 86.9383 63.053 86.9195 63.3585C86.9007 63.6639 86.9995 63.9649 87.1958 64.1999C87.392 64.4348 87.6708 64.5859 87.975 64.622C88.5095 64.6557 89.0482 64.6725 89.5869 64.6725C91.312 64.6732 93.0325 64.4971 94.7216 64.1469C95.3204 64.0246 95.859 63.7007 96.2474 63.2293C96.6358 62.7579 96.8504 62.1675 96.8554 61.557C96.8554 61.2837 96.8554 61.0062 96.8554 60.7161C96.9101 58.5214 96.9606 56.251 95.4918 54.75C94.5911 53.8587 93.2906 53.4088 91.5187 53.4088Z" fill="white"/>
<path d="M82.0911 61.1155C79.7234 60.3867 77.4758 59.3143 75.4203 57.9328C75.1643 57.7655 74.854 57.7023 74.5529 57.756C74.2518 57.8097 73.9826 57.9763 73.8003 58.2217C73.6181 58.4671 73.5366 58.7728 73.5725 59.0762C73.6084 59.3797 73.759 59.658 73.9935 59.8542C76.2578 61.4013 78.744 62.5963 81.3672 63.3985C81.6663 63.4808 81.9857 63.4442 82.2583 63.2962C82.5309 63.1483 82.7356 62.9006 82.8293 62.6051C82.9229 62.3097 82.8984 61.9894 82.7607 61.7117C82.6231 61.4339 82.3831 61.2202 82.0911 61.1155Z" fill="white"/>
<path d="M11.3005 42.8724C13.8368 43.7844 16.4326 44.5219 19.0698 45.0798L20.3576 45.3573C22.6675 46.0723 24.7943 47.2802 26.5908 48.8974C29.0613 51.2014 31.8601 53.476 36.5149 53.8081C40.6942 54.1066 47.3608 54.422 51.4938 54.422C55.6267 54.422 62.2933 54.1066 66.4726 53.8081C71.1274 53.476 73.9262 51.2014 76.3967 48.8974C78.1932 47.2802 80.32 46.0723 82.6299 45.3573L83.9177 45.0798C86.5549 44.5219 89.1507 43.7844 91.687 42.8724C92.6017 42.5342 93.3926 41.9276 93.9559 41.1323C94.5192 40.3369 94.8287 39.39 94.8436 38.4158V38.3821C94.8516 37.145 94.563 35.9239 94.0018 34.821C93.9305 34.681 93.8323 34.5565 93.7128 34.4544C93.5933 34.3524 93.4549 34.2748 93.3054 34.2262C93.1559 34.1776 92.9983 34.1589 92.8416 34.1711C92.6849 34.1834 92.5321 34.2263 92.392 34.2975C92.2519 34.3688 92.1272 34.4669 92.025 34.5862C91.9229 34.7056 91.8452 34.8439 91.7966 34.9932C91.7479 35.1426 91.7292 35.3 91.7414 35.4566C91.7537 35.6131 91.7967 35.7658 91.868 35.9057C92.2621 36.6806 92.4655 37.5382 92.4614 38.4074C92.4498 38.8964 92.2904 39.3704 92.0042 39.7673C91.7181 40.1643 91.3185 40.4655 90.8579 40.6315C88.5858 41.4508 86.2617 42.1179 83.9009 42.6286C82.8139 41.7763 82.0869 40.5474 81.8639 39.1852C81.8446 39.0247 81.7929 38.8697 81.7121 38.7297C81.6313 38.5896 81.5229 38.4673 81.3936 38.3702C81.2642 38.2731 81.1165 38.2031 80.9594 38.1645C80.8022 38.1259 80.6389 38.1195 80.4792 38.1456C80.3195 38.1717 80.1667 38.2298 80.0301 38.3165C79.8934 38.4031 79.7758 38.5165 79.6842 38.6497C79.5926 38.783 79.5289 38.9334 79.497 39.0919C79.4651 39.2504 79.4656 39.4137 79.4986 39.572C79.7191 40.9497 80.2998 42.2449 81.1821 43.3265C78.7999 44.1542 76.6096 45.4542 74.7427 47.1483C72.4995 49.2505 70.1636 51.1425 66.2832 51.42C62.1502 51.7185 55.5552 52.0297 51.4769 52.0297C47.3987 52.0297 40.8036 51.7185 36.6706 51.42C32.7902 51.1425 30.4544 49.2421 28.2111 47.1483C26.3442 45.4542 24.154 44.1542 21.7718 43.3265C22.654 42.2449 23.2347 40.9497 23.4553 39.572C23.4882 39.4137 23.4887 39.2504 23.4568 39.0919C23.4249 38.9334 23.3613 38.783 23.2696 38.6497C23.178 38.5165 23.0604 38.4031 22.9237 38.3165C22.7871 38.2298 22.6344 38.1717 22.4747 38.1456C22.315 38.1195 22.1516 38.1259 21.9945 38.1645C21.8373 38.2031 21.6896 38.2731 21.5602 38.3702C21.4309 38.4673 21.3225 38.5896 21.2417 38.7297C21.1609 38.8697 21.1093 39.0247 21.09 39.1852C20.8669 40.5474 20.1399 41.7763 19.0529 42.6286C16.6921 42.1179 14.368 41.4508 12.0959 40.6315C11.632 40.4629 11.2303 40.1576 10.944 39.7559C10.6577 39.3543 10.5002 38.8752 10.4924 38.3821C10.4909 37.5213 10.6943 36.6725 11.0858 35.9057C11.1571 35.7658 11.2001 35.6131 11.2124 35.4566C11.2246 35.3 11.2059 35.1426 11.1573 34.9932C11.1086 34.8439 11.031 34.7056 10.9288 34.5862C10.8267 34.4669 10.702 34.3688 10.5618 34.2975C10.4217 34.2263 10.269 34.1834 10.1122 34.1711C9.9555 34.1589 9.7979 34.1776 9.64841 34.2262C9.49892 34.2748 9.36048 34.3524 9.24099 34.4544C9.12151 34.5565 9.02331 34.681 8.95201 34.821C8.39088 35.9239 8.10225 37.145 8.11027 38.3821V38.4158C8.12774 39.394 8.4421 40.3438 9.01176 41.1396C9.58142 41.9354 10.3795 42.5397 11.3005 42.8724Z" fill="white"/>
<path d="M102.032 20.6647L101.392 19.8238C101.08 19.4295 100.682 19.1112 100.229 18.8927C99.7751 18.6742 99.278 18.5613 98.7745 18.5625H94.4396C93.8628 18.5636 93.31 18.793 92.9022 19.2004C92.4944 19.6078 92.2648 20.16 92.2637 20.7362C92.2649 21.0341 92.3771 21.321 92.5786 21.5407C92.78 21.7604 93.0562 21.8973 93.3532 21.9246C93.6502 21.9519 93.9468 21.8677 94.185 21.6884C94.4232 21.5091 94.586 21.2476 94.6416 20.9548H98.7745C98.9136 20.9545 99.0509 20.9862 99.1757 21.0474C99.3005 21.1087 99.4095 21.1978 99.4942 21.308L100.138 22.1489C100.376 22.4578 100.531 22.8229 100.586 23.209C100.641 23.595 100.596 23.9887 100.454 24.352V24.3856C100.388 24.5559 100.273 24.7024 100.123 24.8059C99.9726 24.9095 99.7946 24.9652 99.6121 24.9658C99.4489 24.9562 99.2854 24.9799 99.1317 25.0357C98.978 25.0914 98.8374 25.1779 98.7184 25.29C98.5994 25.402 98.5046 25.5371 98.4398 25.6871C98.375 25.837 98.3416 25.9987 98.3416 26.162C98.3416 26.3253 98.375 26.4869 98.4398 26.6369C98.5046 26.7868 98.5994 26.922 98.7184 27.034C98.8374 27.146 98.978 27.2326 99.1317 27.2883C99.2854 27.3441 99.4489 27.3678 99.6121 27.3581C100.278 27.3613 100.929 27.1618 101.478 26.7863C102.028 26.4108 102.45 25.877 102.689 25.2559V25.2223C102.983 24.4707 103.077 23.6558 102.962 22.8571C102.847 22.0584 102.526 21.303 102.032 20.6647Z" fill="white"/>
<path d="M67.6719 42.8721C67.6719 42.555 67.5461 42.2509 67.3221 42.0263C67.098 41.8017 66.794 41.6749 66.4766 41.6738H36.5274C36.2092 41.6738 35.9041 41.8001 35.6792 42.0248C35.4543 42.2495 35.3279 42.5543 35.3279 42.8721C35.3279 43.1899 35.4543 43.4947 35.6792 43.7194C35.9041 43.9441 36.2092 44.0703 36.5274 44.0703H66.4766C66.794 44.0692 67.098 43.9425 67.3221 43.7179C67.5461 43.4933 67.6719 43.1892 67.6719 42.8721Z" fill="white"/>
<path d="M39.3726 46.4717C39.0673 46.4898 38.7805 46.6237 38.5707 46.846C38.361 47.0683 38.2441 47.3623 38.2441 47.6678C38.2441 47.9734 38.361 48.2673 38.5707 48.4897C38.7805 48.712 39.0673 48.8459 39.3726 48.864H63.6317C63.937 48.8459 64.2238 48.712 64.4336 48.4897C64.6433 48.2673 64.7602 47.9734 64.7602 47.6678C64.7602 47.3623 64.6433 47.0683 64.4336 46.846C64.2238 46.6237 63.937 46.4898 63.6317 46.4717H39.3726Z" fill="white"/>
</g>
<defs>
<clipPath id="clip0_220_23">
<rect width="103" height="84" fill="white"/>
</clipPath>
</defs>
</svg>
