<svg width="75" height="75" viewBox="0 0 75 75" fill="none" xmlns="http://www.w3.org/2000/svg">
<path d="M38.5424 15.4355C37.9346 15.4355 37.4421 14.9429 37.4421 14.3352V10.3639C37.4421 9.75624 37.9346 9.26361 38.5424 9.26361C39.1502 9.26361 39.6427 9.75624 39.6427 10.3639V14.3352C39.6427 14.9429 39.15 15.4355 38.5424 15.4355Z" fill="#00BDA0"/>
<path d="M38.5424 65.7364C37.9346 65.7364 37.4421 65.2438 37.4421 64.6361V60.6648C37.4421 60.0571 37.9346 59.5645 38.5424 59.5645C39.1502 59.5645 39.6427 60.0571 39.6427 60.6648V64.6361C39.6427 65.2438 39.15 65.7364 38.5424 65.7364Z" fill="#00BDA0"/>
<path d="M26.9608 18.5393C26.5806 18.5393 26.2107 18.342 26.007 17.989L24.0214 14.5497C23.7175 14.0235 23.8978 13.3506 24.4241 13.0468C24.9501 12.743 25.6233 12.9231 25.927 13.4495L27.9126 16.8888C28.2164 17.415 28.0361 18.0879 27.5099 18.3917C27.3368 18.4918 27.1476 18.5393 26.9608 18.5393Z" fill="#00BDA0"/>
<path d="M52.1115 62.101C51.7312 62.101 51.3614 61.9037 51.1576 61.5507L49.172 58.1115C48.8682 57.5852 49.0485 56.9123 49.5747 56.6085C50.1008 56.3047 50.774 56.4848 51.0777 57.0112L53.0633 60.4505C53.3671 60.9767 53.1868 61.6496 52.6606 61.9534C52.4873 62.0535 52.2981 62.101 52.1115 62.101Z" fill="#00BDA0"/>
<path d="M18.4799 27.0182C18.2933 27.0182 18.1039 26.9707 17.9308 26.8706L14.4917 24.8849C13.9655 24.5811 13.7852 23.9081 14.089 23.3819C14.3927 22.8556 15.0657 22.6753 15.592 22.9792L19.0311 24.965C19.5573 25.2688 19.7376 25.9417 19.4338 26.4679C19.23 26.8209 18.8602 27.0182 18.4799 27.0182Z" fill="#00BDA0"/>
<path d="M62.0417 52.1686C61.8551 52.1686 61.6657 52.1211 61.4926 52.021L58.0535 50.0353C57.5272 49.7315 57.3469 49.0585 57.6508 48.5323C57.9543 48.0059 58.6275 47.8257 59.1537 48.1296L62.5928 50.1154C63.119 50.4192 63.2993 51.0921 62.9955 51.6183C62.7918 51.9713 62.4219 52.1686 62.0417 52.1686Z" fill="#00BDA0"/>
<path d="M15.3775 38.6002H11.4062C10.7984 38.6002 10.3059 38.1076 10.3059 37.5C10.3059 36.8923 10.7984 36.3997 11.4062 36.3997H15.3775C15.9853 36.3997 16.4778 36.8923 16.4778 37.5C16.4778 38.1076 15.9853 38.6002 15.3775 38.6002Z" fill="#00BDA0"/>
<path d="M65.6783 38.6002H61.7069C61.0992 38.6002 60.6067 38.1076 60.6067 37.5C60.6067 36.8923 61.0992 36.3997 61.7069 36.3997H65.6783C66.2861 36.3997 66.7786 36.8923 66.7786 37.5C66.7786 38.1076 66.2861 38.6002 65.6783 38.6002Z" fill="#00BDA0"/>
<path d="M15.0428 52.1685C14.6626 52.1685 14.2929 51.9712 14.089 51.6182C13.7852 51.092 13.9655 50.4191 14.4917 50.1153L17.9308 48.1295C18.4567 47.8258 19.1299 48.006 19.4338 48.5322C19.7376 49.0584 19.5573 49.7313 19.0311 50.0352L15.5919 52.0209C15.4188 52.1208 15.2296 52.1685 15.0428 52.1685Z" fill="#00BDA0"/>
<path d="M58.6046 27.0182C58.2244 27.0182 57.8547 26.8209 57.6508 26.4679C57.3469 25.9417 57.5272 25.2688 58.0535 24.965L61.4926 22.9792C62.0185 22.6755 62.6916 22.8555 62.9955 23.3819C63.2993 23.9081 63.119 24.5811 62.5928 24.8849L59.1537 26.8706C58.9806 26.9705 58.7914 27.0182 58.6046 27.0182Z" fill="#00BDA0"/>
<path d="M24.9732 62.1009C24.7866 62.1009 24.5973 62.0534 24.4241 61.9533C23.8978 61.6495 23.7175 60.9766 24.0214 60.4504L26.007 57.0111C26.3106 56.4849 26.9834 56.3044 27.5099 56.6084C28.0361 56.9122 28.2164 57.5851 27.9126 58.1114L25.927 61.5506C25.7234 61.9036 25.3534 62.1009 24.9732 62.1009Z" fill="#00BDA0"/>
<path d="M50.1238 18.5393C49.9372 18.5393 49.748 18.4917 49.5747 18.3917C49.0485 18.0879 48.8682 17.4149 49.172 16.8887L51.1576 13.4495C51.4613 12.9232 52.1341 12.7428 52.6606 13.0468C53.1868 13.3506 53.3671 14.0235 53.0633 14.5497L51.0777 17.989C50.8739 18.3418 50.504 18.5393 50.1238 18.5393Z" fill="#00BDA0"/>
<path d="M32.8458 27.5245C35.6224 27.5245 38.2076 29.3436 38.2076 32.3835C38.2076 37.5537 30.6197 39.2292 30.6197 41.7186V42.2931H37.274C37.8005 42.2931 38.2552 42.9154 38.2552 43.6335C38.2552 44.3516 37.8003 45.0217 37.274 45.0217H28.7527C28.2021 45.0217 27.3882 44.6388 27.3882 44.0404V41.7186C27.3882 37.8888 35.0957 35.8542 35.0957 32.4793C35.0957 31.498 34.4494 30.3491 32.8695 30.3491C31.6967 30.3491 30.7393 30.9714 30.7393 32.4554C30.7393 33.0299 30.1409 33.6044 29.1116 33.6044C28.2977 33.6044 27.6993 33.2215 27.6993 31.9289C27.6993 29.2 30.1889 27.5245 32.8458 27.5245Z" fill="#00BDA0"/>
<path d="M45.1008 41.216H39.3562C38.7578 41.216 38.303 40.809 38.303 40.115C38.303 39.9235 38.3508 39.708 38.4705 39.4927L44.1435 28.3384C44.4307 27.74 44.9572 27.5246 45.46 27.5246C46.0105 27.5246 47.0157 28.0033 47.0157 28.7214C47.0157 28.841 46.9679 28.9846 46.8962 29.1282L42.3005 38.3196H45.101V35.8063C45.101 35.1121 45.8908 34.8249 46.6568 34.8249C47.4467 34.8249 48.2125 35.1121 48.2125 35.8063V38.3196H49.3376C49.9838 38.3196 50.3189 39.0377 50.3189 39.7798C50.3189 40.4979 49.84 41.216 49.3376 41.216H48.2125V44.0404C48.2125 44.6866 47.4466 45.0217 46.6568 45.0217C45.8907 45.0217 45.101 44.6866 45.101 44.0404V41.216H45.1008Z" fill="#00BDA0"/>
<path d="M73.225 48.6345C72.653 48.4312 72.0236 48.7309 71.8203 49.3036C69.4052 56.1123 65.0128 61.9503 59.1177 66.1862C53.0968 70.5127 45.9819 72.7995 38.5422 72.7995C29.1134 72.7995 20.249 69.1277 13.5817 62.4605C6.91441 55.7934 3.24261 46.9289 3.24261 37.5C3.24261 28.071 6.91455 19.2066 13.5817 12.5395C20.2488 5.87232 29.1133 2.20052 38.5422 2.20052C44.8517 2.20052 51.043 3.8848 56.4466 7.07145C61.2742 9.91834 65.3687 13.892 68.3668 18.6158L66.7292 17.9517C66.1663 17.7233 65.5246 17.9947 65.296 18.5577C65.0676 19.1208 65.339 19.7625 65.9022 19.9909L70.8251 21.9875C70.9581 22.0415 71.0985 22.0682 71.2385 22.0682C71.434 22.0682 71.6287 22.0161 71.8012 21.9134C72.0973 21.7372 72.2934 21.4327 72.3318 21.0905L72.9329 15.7286C73.0007 15.1248 72.566 14.5804 71.962 14.5126C71.3604 14.4441 70.8139 14.8795 70.7462 15.4835L70.4815 17.844C67.2764 12.6476 62.8301 8.28145 57.5643 5.17622C51.8222 1.78976 45.2444 0 38.5422 0C28.5256 0 19.1085 3.90065 12.0258 10.9835C4.94288 18.0663 1.04224 27.4835 1.04224 37.5C1.04224 47.5165 4.94288 56.9337 12.0258 64.0164C19.1085 71.0992 28.5257 75 38.5422 75C46.4455 75 54.0044 72.5702 60.4018 67.9733C66.6629 63.4744 71.3284 57.2729 73.8942 50.0393C74.0973 49.4666 73.7977 48.8377 73.225 48.6345Z" fill="#00BDA0"/>
<path d="M38.5423 69.078C30.1076 69.078 22.1776 65.7933 16.2133 59.829C10.2491 53.8647 6.96436 45.9349 6.96436 37.5C6.96436 30.3832 9.27564 23.6643 13.6484 18.0697C13.6522 18.0648 13.656 18.06 13.66 18.0552L14.2943 17.2712C14.6763 16.799 15.369 16.7256 15.8417 17.1079C16.3141 17.4901 16.3871 18.1829 16.0048 18.6553L15.3762 19.4323C11.3129 24.6347 9.16488 30.8823 9.16488 37.5C9.16488 53.6987 22.3435 66.8773 38.5423 66.8773C44.4809 66.8773 50.202 65.1144 55.0864 61.7794C59.8548 58.5237 63.532 53.9913 65.721 48.6719C65.863 48.311 66.0995 47.7052 66.1408 47.5902C66.3464 47.0183 66.977 46.7214 67.5483 46.9269C68.1201 47.1324 68.4172 47.7627 68.2115 48.3345C68.1468 48.5148 67.8289 49.3246 67.7658 49.4849C67.7636 49.4904 67.7616 49.4957 67.7594 49.5009C65.4069 55.2223 61.4537 60.0965 56.3271 63.5968C51.0755 67.1826 44.9254 69.078 38.5423 69.078Z" fill="#00BDA0"/>
<path d="M68.4924 44.2823C68.4246 44.2823 68.3561 44.276 68.2873 44.2631C67.6902 44.1504 67.2973 43.5752 67.41 42.978C67.7483 41.1842 67.9198 39.3412 67.9198 37.5C67.9198 21.3013 54.7411 8.1227 38.5423 8.1227C31.542 8.1227 24.7619 10.6259 19.4512 15.171C18.9892 15.566 18.2947 15.5119 17.8998 15.0504C17.5048 14.5887 17.5587 13.8942 18.0203 13.499C23.7294 8.61298 31.0177 5.92218 38.5423 5.92218C46.9771 5.92218 54.9071 9.20683 60.8713 15.1711C66.8355 21.1354 70.1203 29.0652 70.1203 37.5001C70.1203 39.4778 69.9359 41.458 69.5725 43.3858C69.4726 43.9139 69.0108 44.2823 68.4924 44.2823Z" fill="#00BDA0"/>
</svg>
