<svg width="75" height="75" viewBox="0 0 75 75" fill="none" xmlns="http://www.w3.org/2000/svg">
<g clip-path="url(#clip0_215_0)">
<path d="M58.3846 32.5688C58.084 31.6414 57.2974 30.9783 56.3325 30.8382L44.8944 29.1761L39.7793 18.8125C39.3487 17.9377 38.4752 17.3943 37.4999 17.3943C36.5248 17.3943 35.6511 17.9377 35.2206 18.8116L30.1051 29.1761L18.667 30.8382C17.7027 30.9783 16.9164 31.641 16.6147 32.5685C16.3142 33.4946 16.5604 34.4927 17.2581 35.1739L25.5352 43.2415L23.5812 54.6332C23.4162 55.5937 23.8033 56.5464 24.592 57.1196C25.0376 57.4436 25.5591 57.6083 26.0839 57.6081C26.4879 57.6081 26.894 57.5106 27.2691 57.3134L37.4999 51.9348L47.7299 57.3135C48.0931 57.5043 48.5021 57.6052 48.9124 57.6052C49.4532 57.6052 49.9698 57.4373 50.4071 57.1196C51.1944 56.547 51.582 55.5947 51.4178 54.6338L50.645 50.1269C50.5342 49.4822 49.9215 49.0492 49.2775 49.1598C48.6329 49.2704 48.2 49.8827 48.3106 50.5272L49.0834 55.0334C49.0944 55.0984 49.0672 55.1655 49.0143 55.2039C48.9358 55.2611 48.8788 55.2418 48.8315 55.2169L38.0502 49.5488C37.7054 49.3676 37.2935 49.3675 36.9481 49.5488L26.1658 55.2172C26.1083 55.2475 26.0366 55.2422 25.9837 55.2039C25.93 55.1648 25.9035 55.1 25.9147 55.0341L27.974 43.0284C28.0401 42.644 27.9128 42.2522 27.6336 41.9801L18.9112 33.4785C18.864 33.4323 18.8464 33.3623 18.8665 33.3005C18.8869 33.238 18.9419 33.1914 19.0068 33.182L31.0612 31.4303C31.447 31.3742 31.7804 31.1321 31.953 30.7824L37.3443 19.8589C37.4029 19.7401 37.5956 19.7391 37.6547 19.8595L43.0459 30.7824C43.2184 31.1319 43.5519 31.3742 43.9376 31.4303L55.9921 33.182C56.0568 33.1915 56.1116 33.2375 56.1321 33.3009C56.1523 33.3629 56.1349 33.4325 56.088 33.478L47.3655 41.9801C47.0864 42.2522 46.959 42.6443 47.025 43.0284L47.6757 46.8216C47.786 47.4661 48.3986 47.8991 49.0429 47.7885C49.6875 47.6779 50.1206 47.0656 50.0098 46.4211L49.4645 43.2415L57.7416 35.1735C58.4397 34.4926 58.6859 33.4942 58.3846 32.5688Z" fill="#00BDA0"/>
<path d="M6.80889 36.3159H1.18418C0.530127 36.3159 0 36.846 0 37.5C0 38.1541 0.530127 38.6842 1.18418 38.6842H6.80889C7.46309 38.6842 7.99307 38.1539 7.99307 37.5C7.99307 36.846 7.46294 36.3159 6.80889 36.3159Z" fill="#00BDA0"/>
<path d="M73.8157 36.3159H68.191C67.5368 36.3159 67.0068 36.8461 67.0068 37.5C67.0068 38.1541 67.537 38.6842 68.191 38.6842H73.8157C74.4699 38.6842 74.9999 38.1539 74.9999 37.5C74.9999 36.846 74.4699 36.3159 73.8157 36.3159Z" fill="#00BDA0"/>
<path d="M14.9609 58.3647L10.9837 62.3417C10.5211 62.804 10.5211 63.5539 10.9835 64.0163C11.2148 64.2476 11.5179 64.3632 11.821 64.3632C12.1239 64.3632 12.4271 64.2476 12.6581 64.0165L16.6353 60.0393C17.0979 59.577 17.0979 58.8271 16.6355 58.3647C16.173 57.9022 15.4232 57.9022 14.9609 58.3647Z" fill="#00BDA0"/>
<path d="M62.3414 10.9836L58.3641 14.9606C57.9015 15.4231 57.9015 16.173 58.3639 16.6354C58.5952 16.8667 58.8983 16.9823 59.2014 16.9823C59.5044 16.9823 59.8075 16.8667 60.0385 16.6353L64.0159 12.6582C64.4785 12.1959 64.4785 11.4461 64.016 10.9836C63.5535 10.521 62.8037 10.5209 62.3414 10.9836Z" fill="#00BDA0"/>
<path d="M37.5001 67.0068C36.8459 67.0068 36.3159 67.5371 36.3159 68.191V73.8156C36.3159 74.4696 36.846 74.9998 37.5001 74.9998C38.1543 74.9998 38.6843 74.4695 38.6843 73.8156V68.191C38.6843 67.537 38.1543 67.0068 37.5001 67.0068Z" fill="#00BDA0"/>
<path d="M37.5001 7.99325C38.1543 7.99325 38.6843 7.46298 38.6843 6.80907V1.18436C38.6843 0.53031 38.1541 0.000183105 37.5001 0.000183105C36.8459 0.000183105 36.3159 0.530456 36.3159 1.18436V6.80907C36.3159 7.46312 36.8459 7.99325 37.5001 7.99325Z" fill="#00BDA0"/>
<path d="M60.0385 58.3645C59.5764 57.9021 58.8265 57.9021 58.3639 58.3645C57.9015 58.8268 57.9015 59.5767 58.3641 60.0392L62.3414 64.0164C62.5725 64.2477 62.8758 64.3632 63.1787 64.3632C63.4816 64.3632 63.7848 64.2477 64.016 64.0162C64.4785 63.5539 64.4785 62.804 64.0159 62.3416L60.0385 58.3645Z" fill="#00BDA0"/>
<path d="M14.961 16.6357C15.1923 16.867 15.4954 16.9825 15.7984 16.9825C16.1014 16.9825 16.4046 16.867 16.6358 16.636C17.0982 16.1735 17.0982 15.4237 16.6358 14.9612L12.6586 10.9839C12.1963 10.5214 11.4465 10.5214 10.9838 10.9839C10.5214 11.4462 10.5214 12.196 10.9838 12.6585L14.961 16.6357Z" fill="#00BDA0"/>
</g>
<defs>
<clipPath id="clip0_215_0">
<rect width="75" height="75" fill="white"/>
</clipPath>
</defs>
</svg>
