<svg width="74" height="74" viewBox="0 0 74 74" fill="none" xmlns="http://www.w3.org/2000/svg">
<path d="M30.8504 40.9572C32.9521 40.9572 34.9278 40.1387 36.4139 38.6527C37.8999 37.1666 38.7184 35.1908 38.7184 33.0892C38.7184 30.9875 37.8999 29.0117 36.4139 27.5256C34.9278 26.0397 32.9521 25.2212 30.8504 25.2212C28.7487 25.2212 26.773 26.0397 25.2869 27.5256C23.8009 29.0117 22.9824 30.9875 22.9824 33.0892C22.9824 35.1908 23.8009 37.1665 25.2869 38.6527C26.773 40.1387 28.7487 40.9572 30.8504 40.9572ZM27.331 29.5698C28.3013 28.5995 29.5759 28.1143 30.8504 28.1143C32.1249 28.1143 33.3995 28.5995 34.3698 29.5698C36.3105 31.5104 36.3105 34.6679 34.3698 36.6086C32.4291 38.5494 29.2717 38.5494 27.331 36.6086C25.3902 34.6679 25.3902 31.5104 27.331 29.5698Z" fill="white"/>
<path d="M73.7995 51.7785L69.422 35.4414L70.4595 34.8423C71.8033 34.0664 72.7645 32.8138 73.1662 31.3148C73.5678 29.816 73.3617 28.2504 72.5859 26.9065L61.6744 8.00758C60.8986 6.66371 59.6457 5.70241 58.1469 5.3009C56.648 4.89953 55.0825 5.10549 53.7387 5.88135L49.1303 8.54192L44.5259 3.93751C42.2608 1.67252 38.5753 1.67252 36.3102 3.93751L23.4938 16.7539C22.9294 17.3183 22.9294 18.2335 23.4938 18.798C24.0582 19.3624 24.9734 19.3624 25.5379 18.798L38.3543 5.98165C38.9056 5.4304 39.6385 5.12674 40.4181 5.12674C41.1977 5.12674 41.9307 5.4304 42.4819 5.98165L57.9132 21.4127C59.0513 22.5506 59.0513 24.4022 57.9132 25.5403L23.3014 60.152C22.1634 61.2901 20.3117 61.2901 19.1738 60.152L3.74268 44.7209C2.60477 43.583 2.60477 41.7312 3.74268 40.5933L16.3401 27.996C16.9045 27.4316 16.9045 26.5164 16.3401 25.952C15.7757 25.3876 14.8605 25.3876 14.2961 25.952L1.69869 38.5494C-0.566301 40.8146 -0.566157 44.5 1.69869 46.765L12.7003 57.7667L15.2961 67.4545C15.9908 70.0471 18.3441 71.761 20.909 71.761C21.4053 71.761 21.9094 71.6968 22.4111 71.5624L69.6917 58.8936C71.1905 58.4921 72.4433 57.5308 73.2192 56.1869C73.9951 54.843 74.2012 53.2773 73.7995 51.7785ZM59.9574 27.5842C62.2223 25.3191 62.2223 21.6336 59.9574 19.3687L51.2467 10.658L55.1843 8.38467C56.5782 7.58005 58.3666 8.05933 59.1712 9.45292L70.0827 28.352C70.4725 29.0271 70.576 29.8137 70.3742 30.5667C70.1724 31.3197 69.6895 31.9492 69.0143 32.339L36.335 51.2064L59.9574 27.5842ZM70.7157 54.7414C70.3259 55.4165 69.6966 55.8996 68.9435 56.1012L21.6628 68.77C20.1082 69.1858 18.5046 68.2607 18.0882 66.7062L16.7882 61.8545L17.1297 62.196C18.2621 63.3285 19.7498 63.8947 21.2375 63.8947C22.725 63.8947 24.2127 63.3285 25.3453 62.196L28.4374 59.1039L66.8302 36.9378L71.0073 52.5266C71.2092 53.2796 71.1055 54.0662 70.7157 54.7414Z" fill="white"/>
<path d="M19.9167 23.8198C20.2983 23.8198 20.6698 23.6652 20.9386 23.3963C21.2074 23.1275 21.3621 22.7546 21.3621 22.3745C21.3621 21.9944 21.2074 21.6215 20.9386 21.3527C20.6698 21.0838 20.2969 20.9292 19.9167 20.9292C19.5366 20.9292 19.1637 21.0838 18.8949 21.3527C18.6261 21.6215 18.4714 21.9944 18.4714 22.3745C18.4714 22.7561 18.6261 23.1275 18.8949 23.3963C19.1637 23.6652 19.5366 23.8198 19.9167 23.8198Z" fill="white"/>
</svg>
