<svg width="85" height="85" viewBox="0 0 85 85" fill="none" xmlns="http://www.w3.org/2000/svg">
<path d="M75.4662 45.7001C75.1836 45.6999 74.911 45.5954 74.7006 45.4068C74.4902 45.2182 74.3567 44.9587 74.3256 44.6778C74.1994 43.5549 74.0077 42.4404 73.7513 41.3398C73.6826 41.043 73.7346 40.731 73.896 40.4725C74.0573 40.214 74.3147 40.0302 74.6116 39.9615C74.9085 39.8928 75.2205 39.9448 75.479 40.1062C75.7375 40.2675 75.9213 40.5249 75.99 40.8218C76.2659 42.0095 76.4726 43.2123 76.6091 44.424C76.6413 44.726 76.5526 45.0286 76.3623 45.2654C76.172 45.5022 75.8956 45.654 75.5937 45.6875C75.5515 45.6946 75.5089 45.6988 75.4662 45.7001Z" fill="#00BDA0"/>
<path d="M42.6148 82.7027C33.5344 82.7018 24.8262 79.094 18.4056 72.6728C11.9851 66.2516 8.37817 57.5431 8.37817 48.4626C8.38791 39.3854 11.9989 30.6828 18.4186 24.2653C24.8383 17.8477 33.5421 14.2396 42.6194 14.2329C49.9922 14.2084 57.1713 16.5921 63.0653 21.0214C67.062 23.9988 70.3652 27.8076 72.7473 32.1851C72.8223 32.3179 72.8702 32.4644 72.888 32.6159C72.9058 32.7673 72.8933 32.9209 72.8512 33.0675C72.809 33.2141 72.7381 33.3508 72.6426 33.4697C72.547 33.5886 72.4287 33.6873 72.2946 33.76C72.1605 33.8327 72.0133 33.8779 71.8615 33.8931C71.7097 33.9083 71.5565 33.8931 71.4106 33.8484C71.2648 33.8037 71.1293 33.7304 71.0121 33.6328C70.8949 33.5351 70.7983 33.4152 70.728 33.2798C68.5041 29.1952 65.4212 25.6412 61.6916 22.8627C56.1825 18.7524 49.4929 16.5318 42.6194 16.5318C35.7459 16.5318 29.0563 18.7524 23.5472 22.8627C18.9929 26.2508 15.4244 30.7919 13.2092 36.0182C10.9941 41.2445 10.2126 46.9669 10.9452 52.5957C11.6777 58.2246 13.8979 63.5563 17.3769 68.0415C20.856 72.5267 25.468 76.0032 30.7378 78.1127C38.3619 81.1659 46.8689 81.1659 54.493 78.1127C61.2171 75.4198 66.8242 70.518 70.3914 64.2141C70.4656 64.0827 70.5648 63.9672 70.6836 63.8742C70.8024 63.7812 70.9383 63.7125 71.0837 63.672C71.229 63.6315 71.3809 63.62 71.5306 63.6383C71.6804 63.6565 71.8251 63.704 71.9565 63.7781C72.0878 63.8523 72.2033 63.9516 72.2963 64.0704C72.3894 64.1891 72.4581 64.3251 72.4985 64.4704C72.539 64.6157 72.5505 64.7676 72.5322 64.9173C72.514 65.0671 72.4665 65.2118 72.3924 65.3432C68.5693 72.1025 62.5592 77.3591 55.351 80.248C51.3038 81.8806 46.9788 82.7141 42.6148 82.7027Z" fill="#00BDA0"/>
<path d="M74.7449 57.5886C74.5709 57.5887 74.3993 57.5492 74.2428 57.4732C74.0864 57.3973 73.9492 57.2867 73.8417 57.15C73.7342 57.0133 73.6591 56.854 73.6222 56.684C73.5852 56.514 73.5873 56.3379 73.6284 56.1689C73.9084 55.0451 74.1232 53.906 74.2716 52.7574C74.3105 52.4551 74.4678 52.1805 74.7091 51.9942C74.9504 51.8078 75.2558 51.725 75.5581 51.7638C75.8605 51.8027 76.135 51.96 76.3213 52.2013C76.5077 52.4426 76.5905 52.748 76.5517 53.0503C76.3926 54.2877 76.1625 55.515 75.8625 56.726C75.7988 56.9737 75.6543 57.193 75.4519 57.3493C75.2494 57.5055 75.0006 57.5898 74.7449 57.5886Z" fill="#00BDA0"/>
<path d="M42.6149 75.8648C37.1961 75.8639 31.8993 74.2561 27.3943 71.2448C22.8893 68.2335 19.3784 63.954 17.3056 58.9473C15.2328 53.9406 14.6912 48.4317 15.7494 43.1173C16.8075 37.8028 19.4178 32.9215 23.2502 29.0906C27.0825 25.2596 31.9649 22.6512 37.2797 21.5951C42.5946 20.5389 48.1033 21.0826 53.1091 23.1573C58.115 25.2319 62.3933 28.7444 65.4029 33.2506C68.4125 37.7568 70.0182 43.0542 70.0171 48.473C70.0073 55.7365 67.1169 62.6997 61.9798 67.8348C56.8427 72.97 49.8785 75.8578 42.6149 75.8648ZM42.6149 23.3715C37.6508 23.3725 32.7984 24.8453 28.6713 27.6039C24.5442 30.3624 21.3278 34.2828 19.4287 38.8693C17.5296 43.4558 17.0331 48.5024 18.002 53.371C18.9709 58.2397 21.3617 62.7117 24.8722 66.2216C28.3826 69.7315 32.8549 72.1217 37.7237 73.09C42.5924 74.0582 47.639 73.5611 52.2252 71.6613C56.8115 69.7616 60.7314 66.5446 63.4894 62.4171C66.2474 58.2897 67.7196 53.4371 67.7198 48.473C67.7137 41.8165 65.0668 35.4344 60.3601 30.7275C55.6534 26.0205 49.2714 23.3733 42.6149 23.367V23.3715Z" fill="#00BDA0"/>
<path d="M46.3422 16.7174C46.0375 16.7174 45.7454 16.5964 45.5299 16.381C45.3145 16.1655 45.1935 15.8734 45.1935 15.5687V11.2188H40.0441V15.5687C40.0441 15.8734 39.9231 16.1655 39.7077 16.381C39.4923 16.5964 39.2001 16.7174 38.8955 16.7174C38.5908 16.7174 38.2987 16.5964 38.0833 16.381C37.8678 16.1655 37.7468 15.8734 37.7468 15.5687V10.0702C37.7468 9.76552 37.8678 9.47335 38.0833 9.25794C38.2987 9.04253 38.5908 8.92151 38.8955 8.92151H46.3422C46.6468 8.92151 46.939 9.04253 47.1544 9.25794C47.3698 9.47335 47.4908 9.76552 47.4908 10.0702V15.5687C47.4908 15.8734 47.3698 16.1655 47.1544 16.381C46.939 16.5964 46.6468 16.7174 46.3422 16.7174Z" fill="#00BDA0"/>
<path d="M49.9329 11.2189H35.3037C34.8309 11.2183 34.3776 11.0301 34.0434 10.6956C33.7092 10.3612 33.5213 9.90782 33.521 9.43501V4.08115C33.5213 3.60834 33.7092 3.15496 34.0434 2.82052C34.3776 2.48608 34.8309 2.29791 35.3037 2.2973H49.9329C50.4057 2.29791 50.859 2.48608 51.1932 2.82052C51.5274 3.15496 51.7153 3.60834 51.7156 4.08115V9.43501C51.7153 9.90782 51.5274 10.3612 51.1932 10.6956C50.859 11.0301 50.4057 11.2183 49.9329 11.2189ZM35.8183 8.92156H49.4183V4.5946H35.8183V8.92156Z" fill="#00BDA0"/>
<path d="M62.3831 23.0879C62.1688 23.0876 61.9589 23.0274 61.777 22.9141C61.5951 22.8007 61.4486 22.6388 61.3539 22.4465C61.2593 22.2542 61.2203 22.0393 61.2414 21.826C61.2625 21.6128 61.3429 21.4097 61.4734 21.2397L64.3106 17.5491C64.4967 17.3075 64.7712 17.1498 65.0736 17.1106C65.3761 17.0714 65.6817 17.1539 65.9233 17.34C66.1648 17.5262 66.3226 17.8006 66.3618 18.1031C66.401 18.4055 66.3185 18.7112 66.1323 18.9527L63.2906 22.6445C63.1831 22.7827 63.0455 22.8944 62.8882 22.9713C62.7309 23.0481 62.5582 23.088 62.3831 23.0879Z" fill="#00BDA0"/>
<path d="M68.7513 21.8967C68.39 21.8968 68.0385 21.7794 67.7497 21.5624L61.3276 16.7852C60.9704 16.5191 60.7335 16.1221 60.6689 15.6814C60.6043 15.2408 60.7173 14.7925 60.983 14.435L63.1757 11.4865C63.4416 11.1294 63.8384 10.8925 64.2789 10.8279C64.7194 10.7633 65.1675 10.8762 65.5247 11.1419L71.9491 15.9214C72.1263 16.0529 72.2758 16.218 72.3891 16.4074C72.5024 16.5968 72.5772 16.8066 72.6092 17.0249C72.6412 17.2433 72.6298 17.4658 72.5757 17.6797C72.5215 17.8936 72.4257 18.0947 72.2937 18.2715L70.1009 21.2201C69.9696 21.3978 69.8043 21.5475 69.6146 21.6607C69.4249 21.7739 69.2146 21.8483 68.9959 21.8794C68.9149 21.8914 68.8331 21.8971 68.7513 21.8967ZM63.1953 15.3115L68.6272 19.3513L70.0826 17.3986L64.6506 13.3565L63.1953 15.3115Z" fill="#00BDA0"/>
<path d="M22.858 23.0878C22.682 23.0879 22.5084 23.0476 22.3504 22.9699C22.1925 22.8923 22.0545 22.7793 21.9472 22.6399L19.1054 18.9527C18.9197 18.7111 18.8376 18.4057 18.8771 18.1036C18.9167 17.8014 19.0746 17.5274 19.3162 17.3417C19.5578 17.1561 19.8632 17.0739 20.1653 17.1135C20.4674 17.153 20.7415 17.3109 20.9272 17.5525L23.7643 21.2431C23.8937 21.4129 23.9731 21.6153 23.9938 21.8277C24.0146 22.0402 23.9757 22.2541 23.8816 22.4457C23.7875 22.6373 23.6418 22.7988 23.4611 22.9122C23.2803 23.0257 23.0715 23.0865 22.858 23.0878Z" fill="#00BDA0"/>
<path d="M16.4877 21.8967C16.4054 21.8968 16.3233 21.8907 16.2419 21.8783C16.0235 21.8472 15.8134 21.773 15.6239 21.66C15.4344 21.5471 15.2692 21.3975 15.1381 21.2201L12.943 18.2704C12.6779 17.9127 12.5653 17.4646 12.6299 17.0241C12.6945 16.5837 12.931 16.1867 13.2876 15.9202L19.712 11.1419C20.0691 10.8793 20.5153 10.7682 20.9539 10.8327C21.3924 10.8972 21.7878 11.1321 22.0541 11.4865L24.2491 14.4362C24.513 14.7941 24.6248 15.2417 24.5603 15.6816C24.4958 16.1215 24.2601 16.5182 23.9045 16.7852L17.4721 21.5647C17.1879 21.7778 16.8429 21.8941 16.4877 21.8967ZM15.1541 17.3951L16.6106 19.3478L22.0426 15.3115L20.5872 13.3588L15.1541 17.3951Z" fill="#00BDA0"/>
<path d="M42.615 30.0866C42.3103 30.0866 42.0182 29.9655 41.8027 29.7501C41.5873 29.5347 41.4663 29.2426 41.4663 28.9379V27.9788C41.4663 27.6741 41.5873 27.382 41.8027 27.1666C42.0182 26.9512 42.3103 26.8301 42.615 26.8301C42.9196 26.8301 43.2118 26.9512 43.4272 27.1666C43.6426 27.382 43.7636 27.6741 43.7636 27.9788V28.9379C43.7636 29.2426 43.6426 29.5347 43.4272 29.7501C43.2118 29.9655 42.9196 30.0866 42.615 30.0866Z" fill="#00BDA0"/>
<path d="M28.8092 35.8068C28.5046 35.8068 28.2125 35.6857 27.9971 35.4703L27.3194 34.7926C27.2128 34.6858 27.1282 34.559 27.0706 34.4195C27.0129 34.28 26.9833 34.1306 26.9834 33.9797C26.9835 33.8287 27.0133 33.6793 27.0712 33.5399C27.129 33.4005 27.2138 33.2739 27.3206 33.1672C27.4274 33.0606 27.5541 32.976 27.6936 32.9184C27.8331 32.8607 27.9826 32.8311 28.1335 32.8312C28.2844 32.8313 28.4339 32.8611 28.5732 32.919C28.7126 32.9768 28.8393 33.0616 28.9459 33.1684L29.6236 33.8461C29.7842 34.0067 29.8936 34.2114 29.9379 34.4341C29.9822 34.6569 29.9594 34.8878 29.8725 35.0977C29.7856 35.3076 29.6384 35.4869 29.4496 35.6132C29.2607 35.7394 29.0387 35.8068 28.8115 35.8068H28.8092Z" fill="#00BDA0"/>
<path d="M23.0878 49.6217H22.1286C21.824 49.6217 21.5318 49.5006 21.3164 49.2852C21.101 49.0698 20.98 48.7776 20.98 48.473C20.98 48.1684 21.101 47.8762 21.3164 47.6608C21.5318 47.4454 21.824 47.3243 22.1286 47.3243H23.0878C23.3924 47.3243 23.6846 47.4454 23.9 47.6608C24.1154 47.8762 24.2364 48.1684 24.2364 48.473C24.2364 48.7776 24.1154 49.0698 23.9 49.2852C23.6846 49.5006 23.3924 49.6217 23.0878 49.6217Z" fill="#00BDA0"/>
<path d="M28.1316 64.1026C27.9044 64.1026 27.6824 64.0352 27.4935 63.9089C27.3047 63.7827 27.1575 63.6034 27.0706 63.3935C26.9837 63.1836 26.9609 62.9527 27.0052 62.7299C27.0495 62.5072 27.1589 62.3025 27.3195 62.1419L27.9972 61.4642C28.2138 61.2549 28.504 61.1391 28.8051 61.1418C29.1063 61.1444 29.3944 61.2652 29.6074 61.4782C29.8203 61.6911 29.9411 61.9792 29.9437 62.2804C29.9464 62.5816 29.8306 62.8717 29.6214 63.0884L28.9437 63.7661C28.7283 63.9815 28.4362 64.1025 28.1316 64.1026Z" fill="#00BDA0"/>
<path d="M42.615 70.1031C42.3103 70.1031 42.0182 69.9821 41.8027 69.7667C41.5873 69.5513 41.4663 69.2591 41.4663 68.9545V68C41.4663 67.6953 41.5873 67.4032 41.8027 67.1877C42.0182 66.9723 42.3103 66.8513 42.615 66.8513C42.9196 66.8513 43.2118 66.9723 43.4272 67.1877C43.6426 67.4032 43.7636 67.6953 43.7636 68V68.9579C43.7627 69.262 43.6413 69.5533 43.426 69.7679C43.2107 69.9826 42.919 70.1032 42.615 70.1031Z" fill="#00BDA0"/>
<path d="M57.1062 64.1026C56.8016 64.1025 56.5094 63.9815 56.2941 63.7661L55.6164 63.0884C55.4071 62.8717 55.2914 62.5816 55.294 62.2804C55.2966 61.9792 55.4174 61.6911 55.6304 61.4782C55.8433 61.2652 56.1314 61.1444 56.4326 61.1418C56.7338 61.1391 57.0239 61.2549 57.2406 61.4642L57.9183 62.1419C58.0789 62.3025 58.1882 62.5072 58.2325 62.7299C58.2768 62.9527 58.2541 63.1836 58.1672 63.3935C58.0802 63.6034 57.9331 63.7827 57.7442 63.9089C57.5554 64.0352 57.3333 64.1026 57.1062 64.1026Z" fill="#00BDA0"/>
<path d="M63.1056 49.6217H62.1477C61.843 49.6217 61.5509 49.5006 61.3355 49.2852C61.12 49.0698 60.999 48.7776 60.999 48.473C60.999 48.1684 61.12 47.8762 61.3355 47.6608C61.5509 47.4454 61.843 47.3243 62.1477 47.3243H63.1056C63.4103 47.3243 63.7025 47.4454 63.9179 47.6608C64.1333 47.8762 64.2543 48.1684 64.2543 48.473C64.2543 48.7776 64.1333 49.0698 63.9179 49.2852C63.7025 49.5006 63.4103 49.6217 63.1056 49.6217Z" fill="#00BDA0"/>
<path d="M56.4284 35.8068C56.2013 35.8068 55.9793 35.7394 55.7904 35.6131C55.6016 35.4869 55.4544 35.3075 55.3675 35.0977C55.2805 34.8878 55.2578 34.6569 55.3021 34.4341C55.3464 34.2113 55.4557 34.0067 55.6163 33.8461L56.294 33.1684C56.4 33.0586 56.5267 32.9711 56.6669 32.9109C56.807 32.8507 56.9577 32.8191 57.1103 32.8177C57.2628 32.8164 57.414 32.8455 57.5552 32.9032C57.6964 32.961 57.8246 33.0463 57.9325 33.1541C58.0403 33.262 58.1256 33.3902 58.1834 33.5314C58.2411 33.6725 58.2702 33.8238 58.2688 33.9763C58.2675 34.1288 58.2358 34.2796 58.1756 34.4197C58.1154 34.5598 58.0279 34.6866 57.9182 34.7925L57.2405 35.4702C57.0252 35.6857 56.733 35.8067 56.4284 35.8068Z" fill="#00BDA0"/>
<path d="M38.7475 53.2215C38.5204 53.2215 38.2983 53.1541 38.1095 53.0278C37.9206 52.9016 37.7735 52.7222 37.6865 52.5124C37.5996 52.3025 37.5769 52.0716 37.6212 51.8488C37.6655 51.626 37.7748 51.4214 37.9354 51.2608L41.4664 47.7264V34.4675C41.4664 34.1629 41.5874 33.8707 41.8028 33.6553C42.0182 33.4399 42.3104 33.3188 42.615 33.3188C42.9197 33.3188 43.2118 33.4399 43.4273 33.6553C43.6427 33.8707 43.7637 34.1629 43.7637 34.4675V48.2019C43.7636 48.5065 43.6426 48.7986 43.4271 49.014L39.5596 52.8861C39.3441 53.1011 39.052 53.2217 38.7475 53.2215Z" fill="#00BDA0"/>
</svg>
