<svg width="75" height="75" viewBox="0 0 75 75" fill="none" xmlns="http://www.w3.org/2000/svg">
<path d="M51.7241 27.5612V13.2155C51.7241 5.92888 45.3427 0 37.5 0C29.6573 0 23.2759 5.92888 23.2759 13.2155V27.5612C16.2724 32.1931 11.6379 40.1302 11.6379 49.1379C11.6379 63.3983 23.2397 75 37.5 75C51.7604 75 63.3621 63.3983 63.3621 49.1379C63.3621 40.1302 58.7276 32.1931 51.7241 27.5612ZM25.8621 26.0651V13.2155C25.8621 7.35517 31.0823 2.58621 37.5 2.58621C43.9177 2.58621 49.1379 7.35517 49.1379 13.2155V26.0664C48.8948 25.9435 48.6466 25.8349 48.4009 25.7198C47.8927 25.4819 47.3767 25.2595 46.8517 25.0539C46.5142 24.922 46.1754 24.7978 45.8341 24.6802C45.4979 24.5651 45.1642 24.45 44.8228 24.3491C44.2578 24.181 43.6862 24.0375 43.1108 23.9082C42.8612 23.8526 42.6104 23.7996 42.3582 23.7504C41.6819 23.6198 41.0017 23.5138 40.3164 23.4375C40.1612 23.4207 40.006 23.4103 39.8509 23.3961C39.0685 23.3224 38.2862 23.2759 37.5 23.2759C36.7138 23.2759 35.9315 23.3224 35.1517 23.3948C34.9966 23.409 34.8401 23.4194 34.6862 23.4362C34.0009 23.5125 33.3207 23.6185 32.6444 23.7491C32.3923 23.797 32.1414 23.8513 31.8918 23.9069C31.3164 24.0362 30.7448 24.1797 30.1798 24.3478C29.8384 24.4487 29.5035 24.5651 29.1685 24.6789C28.8272 24.7966 28.4871 24.9207 28.1509 25.0526C27.6246 25.2569 27.1099 25.4806 26.6017 25.7185C26.3535 25.8336 26.1052 25.9422 25.8621 26.0651ZM37.5 72.4138C24.666 72.4138 14.2241 61.972 14.2241 49.1379C14.2241 40.6849 18.7694 33.2909 25.5297 29.2138C26.7194 28.4974 27.9634 27.8935 29.2448 27.4022C29.4724 27.3155 29.7013 27.2302 29.9315 27.15C30.2845 27.0272 30.6388 26.9095 30.997 26.8034C31.4366 26.6754 31.8828 26.5616 32.3328 26.4595C32.6612 26.3845 32.991 26.3185 33.322 26.2578C33.7991 26.1711 34.2802 26.0935 34.7677 26.0366C34.9875 26.0095 35.2086 25.9862 35.4298 25.9668C36.1138 25.906 36.8017 25.8621 37.5 25.8621C38.1983 25.8621 38.8862 25.906 39.5703 25.9668C39.7914 25.9875 40.0112 26.0108 40.2323 26.0366C40.7198 26.0935 41.2009 26.1711 41.678 26.2578C42.0091 26.3185 42.3388 26.3845 42.6672 26.4595C43.1172 26.5616 43.5634 26.6754 44.003 26.8034C44.3612 26.9082 44.7155 27.0272 45.0685 27.15C45.3 27.2302 45.5276 27.3155 45.7552 27.4022C47.0366 27.8935 48.2806 28.4974 49.4703 29.2138C56.2306 33.2909 60.7759 40.6849 60.7759 49.1379C60.7759 61.972 50.3341 72.4138 37.5 72.4138Z" fill="#00BDA0"/>
<path d="M53.0173 47.8448H49.0617C48.8121 45.6039 47.9237 43.5569 46.5841 41.8823L49.3862 39.0802C49.8919 38.5746 49.8919 37.7573 49.3862 37.2517C48.8806 36.7461 48.0634 36.7461 47.5578 37.2517L44.7556 40.0539C43.0811 38.7142 41.0341 37.8259 38.7931 37.5763V33.6207C38.7931 32.9056 38.2151 32.3276 37.5 32.3276C36.785 32.3276 36.2069 32.9056 36.2069 33.6207V37.5763C33.966 37.8259 31.919 38.7142 30.2444 40.0539L27.4423 37.2517C26.9367 36.7461 26.1194 36.7461 25.6138 37.2517C25.1082 37.7573 25.1082 38.5746 25.6138 39.0802L28.416 41.8823C27.0763 43.5569 26.188 45.6039 25.9384 47.8448H21.9828C21.2677 47.8448 20.6897 48.4228 20.6897 49.1379C20.6897 49.853 21.2677 50.431 21.9828 50.431H25.9384C26.188 52.672 27.0763 54.719 28.416 56.3935L25.6138 59.1957C25.1082 59.7013 25.1082 60.5185 25.6138 61.0241C25.866 61.2763 26.197 61.403 26.5281 61.403C26.8591 61.403 27.1901 61.2763 27.4423 61.0241L30.2444 58.222C31.919 59.5616 33.966 60.45 36.2069 60.6996V64.6552C36.2069 65.3703 36.785 65.9483 37.5 65.9483C38.2151 65.9483 38.7931 65.3703 38.7931 64.6552V60.6996C41.0341 60.45 43.0811 59.5616 44.7556 58.222L47.5578 61.0241C47.81 61.2763 48.141 61.403 48.472 61.403C48.8031 61.403 49.1341 61.2763 49.3862 61.0241C49.8919 60.5185 49.8919 59.7013 49.3862 59.1957L46.5841 56.3935C47.9237 54.719 48.8121 52.672 49.0617 50.431H53.0173C53.7324 50.431 54.3104 49.853 54.3104 49.1379C54.3104 48.4228 53.7324 47.8448 53.0173 47.8448ZM37.5 58.1896C32.51 58.1896 28.4483 54.128 28.4483 49.1379C28.4483 44.1478 32.51 40.0862 37.5 40.0862C42.4901 40.0862 46.5518 44.1478 46.5518 49.1379C46.5518 54.128 42.4901 58.1896 37.5 58.1896Z" fill="#00BDA0"/>
</svg>
