<svg width="16" height="16" viewBox="0 0 16 16" fill="none" xmlns="http://www.w3.org/2000/svg">
<path d="M10.412 7.41891C11.4358 6.67225 12.1025 5.46387 12.1025 4.10256C12.1025 1.84041 10.2621 0 7.99993 0C5.73778 0 3.89737 1.84041 3.89737 4.10256C3.89737 5.46387 4.56403 6.67225 5.58784 7.41891C3.04284 8.39281 1.23071 10.8603 1.23071 13.7436C1.23071 14.9878 2.24293 16 3.48712 16H12.5127C13.7569 16 14.7691 14.9878 14.7691 13.7436C14.7691 10.8603 12.957 8.39281 10.412 7.41891ZM5.12815 4.10256C5.12815 2.51906 6.41643 1.23078 7.99993 1.23078C9.58343 1.23078 10.8717 2.51906 10.8717 4.10256C10.8717 5.68606 9.58343 6.97437 7.99993 6.97437C6.41643 6.97437 5.12815 5.68606 5.12815 4.10256ZM12.5127 14.7692H3.48712C2.92159 14.7692 2.46149 14.3091 2.46149 13.7436C2.46149 10.6896 4.94599 8.20509 7.99996 8.20509C11.0539 8.20509 13.5384 10.6896 13.5384 13.7436C13.5384 14.3091 13.0783 14.7692 12.5127 14.7692Z" fill="white"/>
</svg>
