<svg width="94" height="40" viewBox="0 0 94 40" fill="none" xmlns="http://www.w3.org/2000/svg">
<g clip-path="url(#clip0_201_3)">
<path fill-rule="evenodd" clip-rule="evenodd" d="M0 29.9396C1.84395 27.4469 8.77275 27.3559 11 29.6719V36.2411C9.92088 37.276 7.7664 37.7915 5.60992 37.7915C4.78648 37.7915 3.94822 37.6668 3.18141 37.4359V40H0V29.9396ZM8.05791 31.328C6.57846 30.7931 4.65864 30.7931 3.18141 31.328V34.9081C4.69403 35.4236 6.54263 35.3001 8.05791 34.7835V31.328Z" fill="#607D8B"/>
<path fill-rule="evenodd" clip-rule="evenodd" d="M14 40V28H17.163V37.017H22V40H14Z" fill="#607D8B"/>
<path fill-rule="evenodd" clip-rule="evenodd" d="M37 40H33.8884V37.4705H29.114V40H26V29.9381C27.8789 27.354 35.1211 27.354 37 29.9381V40ZM33.8884 34.5682V31.4696C32.4383 30.916 30.5617 30.916 29.114 31.4696V34.5682H33.8884Z" fill="#607D8B"/>
<path fill-rule="evenodd" clip-rule="evenodd" d="M39 30.982V28H50V30.982H46.297V40H42.701V30.982H39Z" fill="#607D8B"/>
<path fill-rule="evenodd" clip-rule="evenodd" d="M53 40H56V28H53V40Z" fill="#607D8B"/>
<path fill-rule="evenodd" clip-rule="evenodd" d="M59.266 31.202V28H69.731V30.779L63.845 36.798H70V40H59V37.221L65.099 31.202H59.266Z" fill="#607D8B"/>
<path fill-rule="evenodd" clip-rule="evenodd" d="M84 40H80.8863V37.4705H76.1113V40H73V29.9381C74.8766 27.354 82.1211 27.354 84 29.9381V40ZM80.8863 34.5682V31.4696C79.436 30.916 77.5614 30.916 76.1113 31.4696V34.5682H80.8863Z" fill="#607D8B"/>
<path fill-rule="evenodd" clip-rule="evenodd" d="M81.0402 22C83.0792 22 85.5373 20.3361 86.5313 18.2825L93.5839 3.71773C94.5779 1.66654 93.73 0 91.6908 0H75.0813C73.0423 0 70.5819 1.66654 69.588 3.71773L62.5353 18.2825C61.6966 20.014 60.7907 21.5892 59 22H81.0402ZM48.507 12C47.1496 12 46.6093 13.1319 47.3014 14.5238L49.7463 19.4526C50.439 20.8456 52.0985 21.9751 53.4557 21.9751C54.1321 21.9751 54.8995 22.0311 55.6463 21.9751C57.4443 21.8433 58.711 19.9911 59.5328 18.2612L62 13.0657C61.2377 12.4219 60.2977 12 59.4692 12H48.507Z" fill="#00BDA0"/>
</g>
<defs>
<clipPath id="clip0_201_3">
<rect width="94" height="40" fill="white"/>
</clipPath>
</defs>
</svg>
