<svg width="22" height="22" viewBox="0 0 22 22" fill="none" xmlns="http://www.w3.org/2000/svg">
<path d="M11.6845 3.27486V1.35435H13.0239C13.9189 1.35435 13.9197 0 13.0239 0H8.99071C8.09575 0 8.09491 1.35435 8.99071 1.35435H10.3301V3.27486C5.47533 3.62297 1.63281 7.68352 1.63281 12.6254C1.63281 17.7944 5.83788 22 11.0074 22C16.1767 22 20.3818 17.7944 20.3818 12.6254C20.3818 7.68352 16.5393 3.62297 11.6845 3.27486ZM11.0074 20.6456C6.58513 20.6456 2.98717 17.0477 2.98717 12.6254C2.98717 8.20284 6.58513 4.60487 11.0074 4.60487C15.4296 4.60487 19.0274 8.20284 19.0274 12.6254C19.0274 17.0477 15.4296 20.6456 11.0074 20.6456Z" fill="#00BDA0"/>
<path d="M14.1528 7.9686L10.4958 12.1814C9.89925 12.869 10.9424 13.7331 11.5188 13.0693L15.1758 8.85667C15.762 8.18092 14.7406 7.29184 14.1528 7.9686Z" fill="#00BDA0"/>
</svg>
